<?xml version="1.0" encoding="UTF-8"?>
<svg id="Layer_1" data-name="Layer 1" xmlns="http://www.w3.org/2000/svg" version="1.1" xmlns:xlink="http://www.w3.org/1999/xlink" viewBox="0 0 26.4 22.3">
  <defs>
    <style>
      .cls-1 {
        clip-path: url(#clippath-11);
      }

      .cls-2 {
        fill: #000;
      }

      .cls-2, .cls-3 {
        stroke-width: 0px;
      }

      .cls-4 {
        clip-path: url(#clippath-2);
      }

      .cls-5 {
        isolation: isolate;
      }

      .cls-6 {
        clip-path: url(#clippath-6);
      }

      .cls-3 {
        fill: none;
      }

      .cls-7 {
        clip-path: url(#clippath-7);
      }

      .cls-8 {
        clip-path: url(#clippath-1);
      }

      .cls-9 {
        clip-path: url(#clippath-4);
      }

      .cls-10 {
        clip-path: url(#clippath-9);
      }

      .cls-11 {
        clip-path: url(#clippath);
      }

      .cls-12 {
        clip-path: url(#clippath-3);
      }

      .cls-13 {
        clip-path: url(#clippath-8);
      }

      .cls-14 {
        clip-path: url(#clippath-5);
      }

      .cls-15 {
        display: none;
      }

      .cls-16 {
        clip-path: url(#clippath-10);
      }
    </style>
    <clipPath id="clippath">
      <rect class="cls-3" x="783.1" y="-142.8" width="71.5" height="71.5" transform="translate(126.7 343.3) rotate(-25.6)"/>
    </clipPath>
    <clipPath id="clippath-1">
      <rect class="cls-3" x="783.1" y="-142.8" width="71.5" height="71.5" transform="translate(126.7 343.3) rotate(-25.6)"/>
    </clipPath>
    <clipPath id="clippath-2">
      <rect class="cls-3" x="783.1" y="-142.8" width="71.5" height="71.5" transform="translate(126.7 343.3) rotate(-25.6)"/>
    </clipPath>
    <clipPath id="clippath-3">
      <rect class="cls-3" x="734.5" y="-142.8" width="62.2" height="62.2" transform="translate(295.7 503) rotate(-44.3)"/>
    </clipPath>
    <clipPath id="clippath-4">
      <rect class="cls-3" x="734.5" y="-142.8" width="62.2" height="62.2" transform="translate(295.7 503) rotate(-44.3)"/>
    </clipPath>
    <clipPath id="clippath-5">
      <rect class="cls-3" x="734.5" y="-142.8" width="62.2" height="62.2" transform="translate(295.7 503) rotate(-44.3)"/>
    </clipPath>
    <clipPath id="clippath-6">
      <rect class="cls-3" x="685.9" y="-136.8" width="43.7" height="43.7" transform="translate(548 584) rotate(-67.9)"/>
    </clipPath>
    <clipPath id="clippath-7">
      <rect class="cls-3" x="685.9" y="-136.8" width="43.7" height="43.7" transform="translate(548 584) rotate(-67.9)"/>
    </clipPath>
    <clipPath id="clippath-8">
      <rect class="cls-3" x="685.9" y="-136.8" width="43.7" height="43.7" transform="translate(548 584) rotate(-67.9)"/>
    </clipPath>
    <clipPath id="clippath-9">
      <rect class="cls-3" x="-45.2" y="-35.1" width="71.5" height="71.5" transform="translate(-1.2 -4) rotate(-25.6)"/>
    </clipPath>
    <clipPath id="clippath-10">
      <rect class="cls-3" x="-45.2" y="-35.1" width="71.5" height="71.5" transform="translate(-1.2 -4) rotate(-25.6)"/>
    </clipPath>
    <clipPath id="clippath-11">
      <rect class="cls-3" x="-45.2" y="-35.1" width="71.5" height="71.5" transform="translate(-1.2 -4) rotate(-25.6)"/>
    </clipPath>
  </defs>
  <g class="cls-15">
    <path class="cls-2" d="M112.7-51.5c0-2.4-.9-3.6-2.8-3.6h-1.7v7.5h1.9c1.8,0,2.6-1.3,2.6-3.9Z"/>
    <path class="cls-2" d="M109.8-45.8h-1.7v8.5h1.8c2.3,0,3.5-1.3,3.5-4s-1.2-4.5-3.6-4.5Z"/>
    <path class="cls-2" d="M89.7-55.5c-1.2,0-2,.6-2.4,1.9s-.6,3.7-.6,7.4.2,6.1.6,7.4c.4,1.3,1.2,1.9,2.4,1.9s2-.6,2.4-1.9c.4-1.3.6-3.8.6-7.4s-.2-6.1-.6-7.4c-.4-1.3-1.2-1.9-2.4-1.9Z"/>
    <path class="cls-2" d="M141.9-75.2v-8.6h-69V-17.7c0,3.2,2.6,5.8,5.8,5.8h57.5c3.2,0,5.8-2.6,5.8-5.8v-13.7c11.6-.6,20.8-10.2,20.8-22s-9.2-21.3-20.8-21.8h-.1ZM89.7-35.2c-6.3,0-9.5-3.8-9.5-11.3s3.2-10.8,9.6-10.8,9.3,3.7,9.3,11-3.2,11-9.5,11h0ZM112.5-35.5h-10.5v-21.3h9.5c4.9,0,7.3,1.7,7.3,5.2s-1.5,4.1-4.4,4.8c3.5.7,5.3,2.6,5.3,5.7s-2.4,5.7-7.2,5.7h0ZM131.7-43.4v7.9h-6.2v-7.9l-5.7-13.4h6.4l4.3,10.3,3.9-10.3h2.5l-5.2,13.4ZM142.1-39.9v-26.6c6.9.6,12.2,6.3,12.2,13.2s-5.5,12.8-12.2,13.4Z"/>
    <path class="cls-2" d="M106.1-108.8c0,1.2-.4,2.3-1.3,3-1.2,1.2-1.2,2.9,0,4,.6.6,1.3.9,2,.9s1.4-.3,2-.9c1.9-1.9,3-4.5,3-7.2s-1-5.2-3-7c-1.7-1.7-1.7-4.5,0-6,1.2-1.1,1.2-2.9,0-4-1.1-1.2-2.9-1.2-4,0-4,3.9-4,10.3,0,14.2.9.9,1.3,1.9,1.3,3Z"/>
    <path class="cls-2" d="M120.5-97.4c-1.2,1.1-1.2,2.9,0,4,.6.6,1.3.9,2,.9s1.4-.3,2-.9c3.9-3.9,3.9-10.3,0-14.2-.9-.9-1.3-1.9-1.3-3s.4-2.3,1.3-3c1.2-1.2,1.2-2.9,0-4-1.1-1.1-2.9-1.1-4,0-1.9,1.9-3,4.5-3,7.2.1,2.7,1.2,5.2,3,7,1.7,1.7,1.7,4.5,0,6Z"/>
    <path class="cls-2" d="M91.8-100.5c0,1.1-.4,2.3-1.3,3-1.2,1.1-1.2,2.9,0,4,.6.6,1.3.9,2,.9s1.4-.3,2-.9c1.9-1.9,3-4.5,3-7.2s-1-5.2-3-7.2-1.7-4.5,0-6c1.2-1.2,1.2-2.9,0-4s-2.9-1.1-4,0c-4,4.2-4,10.5,0,14.4.9.9,1.3,1.9,1.3,3Z"/>
  </g>
  <g class="cls-5">
    <g class="cls-5">
      <path class="cls-2" d="M220.4-76.7c14,0,21,8.3,21,24.8s-7.1,24.8-21.3,24.8-21.3-8.5-21.3-25.4,7.2-24.3,21.7-24.3ZM220-72.8c-2.6,0-4.4,1.4-5.3,4.3-.9,2.9-1.4,8.4-1.4,16.6s.5,13.8,1.4,16.6c.9,2.9,2.7,4.3,5.3,4.3s4.4-1.4,5.3-4.3c.9-2.9,1.4-8.4,1.4-16.6s-.5-13.7-1.4-16.6c-.9-2.9-2.7-4.4-5.3-4.4Z"/>
      <path class="cls-2" d="M272.4-50.4h-8.8c.3-1.4.6-2.4.8-3.1.3-1,.5-1.8.5-2.6,0-1.5-.5-2.2-1.6-2.2s-1.6,1-2.4,3c-.8,2-1.1,4.1-1.1,6.3v21.2h-12.8v-35.4h2.5c3,0,6.4-.3,10.3-.9v5.8c2.1-3.9,4.6-5.8,7.7-5.8s6.2,2.3,6.2,6.8-.2,2.6-.6,4.1c-.1.6-.4,1.6-.7,2.8Z"/>
      <path class="cls-2" d="M309.5-76.6V-27.8h-12.8v-3.1c-2.2,2.6-5,3.9-8.6,3.9-8,0-12-6.1-12-18.4s4.2-18.9,12.7-18.9,6,1.5,7.9,4.4v-16c3.9,0,8.1-.2,12.8-.7ZM292.9-59.1c-2.2,0-3.2,2-3.2,5.9l-.2,7.5v6.9c.1,4.4,1.4,6.6,3.8,6.6s3.6-2.2,3.6-6.5l.2-8.6-.3-5.9c-.4-3.9-1.6-5.9-3.8-5.9Z"/>
      <path class="cls-2" d="M341.9-40.8l5.2,1.5c-.5,8.2-5.4,12.3-14.5,12.3s-17.7-5.9-17.7-17.7,1.6-10.4,4.7-14.1c3.1-3.7,7.2-5.5,12.1-5.5,10.2,0,15.4,6.6,15.4,19.8h-18.7c0,9.3,2.4,13.9,7.1,13.9s6.6-2.6,6.6-7.9,0-1.5,0-2.4ZM328.3-48.4h7.7c0-8.2-1.2-12.4-3.7-12.4s-3.5,3.1-3.8,9.2v3.2Z"/>
      <path class="cls-2" d="M378-50.4h-8.8c.3-1.4.6-2.4.8-3.1.3-1,.5-1.8.5-2.6,0-1.5-.5-2.2-1.6-2.2s-1.6,1-2.4,3c-.8,2-1.1,4.1-1.1,6.3v21.2h-12.8v-35.4h2.5c3,0,6.4-.3,10.3-.9v5.8c2.1-3.9,4.6-5.8,7.7-5.8s6.2,2.3,6.2,6.8-.2,2.6-.6,4.1c-.1.6-.4,1.6-.7,2.8Z"/>
      <path class="cls-2" d="M405.4-27.8v-48h21.3c11,0,16.5,3.9,16.5,11.8s-3.3,9.2-9.9,10.7c8,1.6,12,5.8,12,12.7s-5.4,12.8-16.1,12.8h-23.7ZM419.3-54.9h4.3c4,0,5.9-2.9,5.9-8.8s-2.1-8.1-6.3-8.1h-3.9v16.9ZM419.3-31.8h4c5.2,0,7.8-3,7.8-8.9s-2.7-10.2-8.1-10.2h-3.7v19.2Z"/>
      <path class="cls-2" d="M479.9-63.3l-16.2,40c-2.2,5.5-5.2,8.2-9,8.2s-6.1-1.6-7.5-4.7l4.4-3.2c.4,2.7,1.3,4,3,4s3.4-1.6,4.5-4.7l.9-2.5-14.3-37.2h14.1l7.1,20.8,8.1-20.8h4.7Z"/>
      <path class="cls-2" d="M538.3-75.8l-11.7,30.3v17.7h-13.9v-17.7l-12.9-30.3h14.4l9.8,23.1,8.8-23.1h5.6Z"/>
      <path class="cls-2" d="M556.8-64.2c11.7,0,17.6,6.2,17.6,18.6s-5.9,18.6-17.6,18.6-17.6-6.2-17.6-18.6,5.9-18.6,17.6-18.6ZM556.8-61.1c-2.8,0-4.3,5.1-4.3,15.4s1.4,15.4,4.3,15.4,4.3-5.1,4.3-15.4-1.4-15.4-4.3-15.4Z"/>
      <path class="cls-2" d="M613.5-64.2V-27.8h-12.8v-5.7c-3,4.2-6.8,6.3-11.4,6.3s-9.4-3-9.4-9.1v-27c4.3-.2,8.6-.5,12.8-.9v27.6c0,2.4.7,3.6,2.2,3.6,3.8,0,5.8-4.1,5.8-12.4v-17.9c4.3-.2,8.6-.5,12.8-.9Z"/>
      <path class="cls-2" d="M646.2-50.4h-8.8c.3-1.4.6-2.4.8-3.1.3-1,.5-1.8.5-2.6,0-1.5-.5-2.2-1.6-2.2s-1.6,1-2.4,3c-.8,2-1.1,4.1-1.1,6.3v21.2h-12.8v-35.4h2.5c3,0,6.4-.3,10.3-.9v5.8c2.1-3.9,4.6-5.8,7.7-5.8s6.2,2.3,6.2,6.8-.2,2.6-.6,4.1c-.1.6-.4,1.6-.7,2.8Z"/>
      <path class="cls-2" d="M679.2-54.2l-6.2,1.1c0-5.3-2.5-7.9-7.4-7.9s-4.5,1.2-4.5,3.7,2.6,3.8,7.8,5.9c8,3.3,12,7.4,12,12.4,0,8-5.1,12-15.2,12s-16.1-4-16.1-12l6.6-1.3c0,.8-.1,1.5-.1,2.2,0,2.1.9,3.9,2.6,5.4s3.8,2.3,6.1,2.3,4.6-1.3,4.6-3.9-2.5-3.7-7.5-5.8c-7.5-3.2-11.3-7.4-11.3-12.4s1.4-6.1,4.3-8.2,6.6-3.2,11.1-3.2c8,0,12.5,3.3,13.3,10Z"/>
      <path class="cls-2" d="M711.2-40.8l5.2,1.5c-.5,8.2-5.4,12.3-14.5,12.3s-17.7-5.9-17.7-17.7,1.6-10.4,4.7-14.1c3.1-3.7,7.2-5.5,12.1-5.5,10.2,0,15.4,6.6,15.4,19.8h-18.7c0,9.3,2.4,13.9,7.1,13.9s6.6-2.6,6.6-7.9,0-1.5,0-2.4ZM697.6-48.4h7.7c0-8.2-1.2-12.4-3.7-12.4s-3.5,3.1-3.8,9.2v3.2Z"/>
      <path class="cls-2" d="M734.5-76.5V-27.8h-12.8v-48c3.5,0,7.8-.2,12.8-.7Z"/>
      <path class="cls-2" d="M760.1-63.3v4h-5.1v31.5h-12.8v-31.5h-4.5v-4h4.5v-3.2c0-2.9,1-5.3,3.1-7.2,2.1-1.9,4.6-2.9,7.7-2.9,6.2,0,9.3,2.3,9.3,7s0,.8,0,1.3l-6.1,2.1c.3-1.2.5-2.2.5-2.9,0-2.5-.9-3.7-2.6-3.7s-2.2,1.1-2.2,3.3,1.1,3.4,3.2,6.2h5.1Z"/>
    </g>
  </g>
  <g class="cls-15">
    <g class="cls-11">
      <g class="cls-8">
        <g class="cls-4">
          <g>
            <path class="cls-2" d="M801.9-82.1c3.7,6.5,10.9,9.3,16.1,6.3,5.1-3,6.3-10.6,2.5-17.1-3.7-6.5-10.9-9.3-16.1-6.3-5.1,3-6.3,10.6-2.5,17.1ZM803.8-94.5c.5-.9,1.3-1.6,2.2-2.2,0,0,.2,0,.3,0,.8,3.6,3.5,5.9,6.4,8.4,2.5,2.2,5.1,4.4,6.3,7.5-.5,1.1-1.3,1.9-2.3,2.5h0c-.5-3.2-3-5.3-5.8-7.8-2.6-2.3-5.5-4.7-6.8-8.3h-.3Z"/>
            <path class="cls-2" d="M799.6-108.3c7,2.6,14.3.2,16.4-5.4,2.1-5.6-1.9-12.2-8.9-14.8-7-2.6-14.3-.2-16.4,5.4s1.9,12.2,8.9,14.8ZM793.4-122.1s0-.2,0-.3c2.9,2.2,6.5,2.3,10.2,2.4,3.3,0,6.7.2,9.6,1.8.3,1.1.2,2.3-.2,3.5h0c-2.4-2.1-5.7-2.2-9.5-2.3-3.4,0-7.2-.2-10.6-2.1-.2-1,0-2.1.3-3h.1Z"/>
            <path class="cls-2" d="M832.5-96.7c5.9.7,11.4-4.7,12.3-12.1.9-7.4-3.1-14-9-14.7s-11.4,4.7-12.3,12.1c-.9,7.4,3.1,14,9,14.7ZM832.8-109.4c-.7-3.4-1.5-7.1-.4-10.7.9-.4,2-.6,3-.4h.3c-1.5,3.3-.7,6.8,0,10.5.7,3.2,1.4,6.6.5,9.8h0c-1,.5-2.2.7-3.4.6h0c1.5-2.9.8-6.1,0-9.7h0Z"/>
          </g>
        </g>
      </g>
    </g>
    <g class="cls-12">
      <g class="cls-9">
        <g class="cls-14">
          <g>
            <path class="cls-2" d="M739.8-118.7c-4.3,4.9-4.6,11.6-.7,15,3.9,3.4,10.5,2.2,14.8-2.7,4.3-4.9,4.6-11.6.7-15-3.9-3.4-10.5-2.2-14.8,2.7ZM750.5-120.6c.9.2,1.7.6,2.4,1.2,0,0,0,0,.2.2-2.7,1.7-3.9,4.6-5.1,7.6-1.1,2.7-2.2,5.4-4.4,7.2-1,0-2-.6-2.7-1.2h0c2.5-1.4,3.6-4,4.8-7,1.1-2.8,2.4-5.8,5-7.9h-.2Z"/>
            <path class="cls-2" d="M760.7-127.9c-.2,6.5,3.9,11.9,9,12,5.2,0,9.5-5,9.7-11.5s-3.9-11.9-9-12c-5.2,0-9.5,5-9.7,11.5ZM770.3-136.8h.3c-1,3,0,6,.9,9.1.9,2.8,1.7,5.6,1.2,8.4-.9.5-1.9.8-2.9.8h0c1.1-2.6.2-5.3-.8-8.4-.9-2.9-1.9-6-1.3-9.3.8-.4,1.7-.6,2.6-.6Z"/>
            <path class="cls-2" d="M760.4-97.5c1,5.1,7,8.1,13.4,6.8s10.7-6.5,9.6-11.5c-1-5.1-7-8.1-13.4-6.8-6.4,1.3-10.7,6.5-9.6,11.5ZM770.9-100.8c2.6-1.5,5.4-3.2,8.7-3.3.6.7,1,1.5,1.2,2.4v.2c-3.2-.3-5.8,1.3-8.7,3-2.5,1.5-5,3-7.9,3.1h0c-.7-.7-1.2-1.6-1.4-2.6h0c2.8.4,5.2-1,8-2.7h.1Z"/>
          </g>
        </g>
      </g>
    </g>
    <g class="cls-6">
      <g class="cls-7">
        <g class="cls-13">
          <g>
            <path class="cls-2" d="M710.2-96.7c4.4,1.4,8.8-.3,9.9-3.8,1.1-3.5-1.5-7.4-5.9-8.8-4.4-1.4-8.8.3-9.9,3.8-1.1,3.5,1.5,7.4,5.9,8.8ZM706-103.1c0-.6,0-1.3,0-1.9v-.2c1.8,1.3,4,1.2,6.3,1.2s4.1,0,5.9.8c.2.7.2,1.4,0,2.1h0c-1.6-1.2-3.6-1.1-5.9-1.1s-4.4,0-6.5-1h.2Z"/>
            <path class="cls-2" d="M698.4-107.6c4.2-1.7,6.6-5.8,5.2-9.2-1.4-3.4-5.9-4.7-10.1-3-4.2,1.7-6.6,5.8-5.2,9.2,1.4,3.4,5.9,4.7,10.1,3ZM689.9-111.3v-.2c2.2-.2,3.9-1.6,5.6-3.1,1.5-1.3,3.1-2.7,5.1-3.2.6.4,1.1,1,1.3,1.6h0c-2,0-3.5,1.4-5.2,2.9-1.6,1.4-3.3,2.9-5.6,3.4-.5-.4-.9-.9-1.1-1.5h0Z"/>
            <path class="cls-2" d="M718-115.9c3-2.1,3.2-6.8.6-10.6-2.6-3.7-7.2-5.1-10.2-3s-3.2,6.8-.6,10.6c2.6,3.7,7.2,5.1,10.2,3ZM713-121.8c-1.7-1.2-3.6-2.6-4.6-4.7.3-.6.7-1.1,1.2-1.4h.2c.7,2.1,2.5,3.4,4.3,4.7,1.7,1.2,3.3,2.4,4.2,4.2h0c-.3.7-.7,1.3-1.3,1.7h0c-.5-1.9-2.2-3.1-4-4.4h0Z"/>
          </g>
        </g>
      </g>
    </g>
  </g>
  <g class="cls-10">
    <g class="cls-16">
      <g class="cls-1">
        <path class="cls-2" d="M17,1C10-1.6,2.7.8.6,6.4c-2.1,5.6,1.9,12.2,8.9,14.8,7,2.6,14.3.2,16.4-5.4s-1.9-12.2-8.9-14.8ZM23.1,14.8s0,.2,0,.3c-2.9-2.2-6.5-2.3-10.2-2.4-3.3,0-6.7-.2-9.6-1.8-.3-1.1-.2-2.3.2-3.5h0c2.4,2.1,5.7,2.2,9.5,2.3,3.4,0,7.2.2,10.6,2.1.2,1,0,2.1-.3,3h0Z"/>
      </g>
    </g>
  </g>
</svg>