<?xml version="1.0" encoding="UTF-8"?>
<svg id="Layer_1" data-name="Layer 1" xmlns="http://www.w3.org/2000/svg" version="1.1" xmlns:xlink="http://www.w3.org/1999/xlink" viewBox="0 0 187.4 96.1">
  <defs>
    <style>
      .cls-1 {
        clip-path: url(#clippath-11);
      }

      .cls-2 {
        clip-path: url(#clippath-16);
      }

      .cls-3, .cls-4 {
        stroke-width: 0px;
      }

      .cls-3, .cls-5 {
        fill: #000;
      }

      .cls-6 {
        clip-path: url(#clippath-2);
      }

      .cls-7 {
        clip-path: url(#clippath-13);
      }

      .cls-8 {
        clip-path: url(#clippath-15);
      }

      .cls-9 {
        clip-path: url(#clippath-6);
      }

      .cls-4 {
        fill: none;
      }

      .cls-10 {
        clip-path: url(#clippath-7);
      }

      .cls-11 {
        clip-path: url(#clippath-1);
      }

      .cls-12 {
        clip-path: url(#clippath-4);
      }

      .cls-13 {
        clip-path: url(#clippath-12);
      }

      .cls-14 {
        clip-path: url(#clippath-9);
      }

      .cls-15 {
        clip-path: url(#clippath);
      }

      .cls-16 {
        clip-path: url(#clippath-3);
      }

      .cls-5 {
        font-family: BritannicBold, 'Britannic Bold';
        font-size: 72px;
      }

      .cls-5, .cls-17 {
        display: none;
      }

      .cls-18 {
        clip-path: url(#clippath-8);
      }

      .cls-19 {
        clip-path: url(#clippath-14);
      }

      .cls-20 {
        clip-path: url(#clippath-17);
      }

      .cls-21 {
        clip-path: url(#clippath-5);
      }

      .cls-22 {
        clip-path: url(#clippath-10);
      }
    </style>
    <clipPath id="clippath">
      <rect class="cls-4" x="840.1" y="-96.3" width="71.5" height="71.5" transform="translate(112.4 372.9) rotate(-25.6)"/>
    </clipPath>
    <clipPath id="clippath-1">
      <rect class="cls-4" x="840.1" y="-96.3" width="71.5" height="71.5" transform="translate(112.4 372.9) rotate(-25.6)"/>
    </clipPath>
    <clipPath id="clippath-2">
      <rect class="cls-4" x="840.1" y="-96.3" width="71.5" height="71.5" transform="translate(112.4 372.9) rotate(-25.6)"/>
    </clipPath>
    <clipPath id="clippath-3">
      <rect class="cls-4" x="791.4" y="-96.1" width="62.2" height="62.2" transform="translate(279.6 556.2) rotate(-44.3)"/>
    </clipPath>
    <clipPath id="clippath-4">
      <rect class="cls-4" x="791.4" y="-96.1" width="62.2" height="62.2" transform="translate(279.6 556.2) rotate(-44.3)"/>
    </clipPath>
    <clipPath id="clippath-5">
      <rect class="cls-4" x="791.4" y="-96.1" width="62.2" height="62.2" transform="translate(279.6 556.2) rotate(-44.3)"/>
    </clipPath>
    <clipPath id="clippath-6">
      <rect class="cls-4" x="742.7" y="-90.1" width="43.7" height="43.7" transform="translate(540.6 666) rotate(-67.9)"/>
    </clipPath>
    <clipPath id="clippath-7">
      <rect class="cls-4" x="742.7" y="-90.1" width="43.7" height="43.7" transform="translate(540.6 666) rotate(-67.9)"/>
    </clipPath>
    <clipPath id="clippath-8">
      <rect class="cls-4" x="742.7" y="-90.1" width="43.7" height="43.7" transform="translate(540.6 666) rotate(-67.9)"/>
    </clipPath>
    <clipPath id="clippath-9">
      <rect class="cls-4" x="11.9" y="11.9" width="71.5" height="71.5" transform="translate(111.3 70) rotate(154.4)"/>
    </clipPath>
    <clipPath id="clippath-10">
      <rect class="cls-4" x="11.9" y="11.9" width="71.5" height="71.5" transform="translate(111.3 70) rotate(154.4)"/>
    </clipPath>
    <clipPath id="clippath-11">
      <rect class="cls-4" x="11.9" y="11.9" width="71.5" height="71.5" transform="translate(111.3 70) rotate(154.4)"/>
    </clipPath>
    <clipPath id="clippath-12">
      <rect class="cls-4" x="69.9" y="21.1" width="62.2" height="62.2" transform="translate(209.6 18.9) rotate(135.7)"/>
    </clipPath>
    <clipPath id="clippath-13">
      <rect class="cls-4" x="69.9" y="21.1" width="62.2" height="62.2" transform="translate(209.6 18.9) rotate(135.7)"/>
    </clipPath>
    <clipPath id="clippath-14">
      <rect class="cls-4" x="69.9" y="21.1" width="62.2" height="62.2" transform="translate(209.6 18.9) rotate(135.7)"/>
    </clipPath>
    <clipPath id="clippath-15">
      <rect class="cls-4" x="137.1" y="33.4" width="43.7" height="43.7" transform="translate(269.9 -71.3) rotate(112.1)"/>
    </clipPath>
    <clipPath id="clippath-16">
      <rect class="cls-4" x="137.1" y="33.4" width="43.7" height="43.7" transform="translate(269.9 -71.3) rotate(112.1)"/>
    </clipPath>
    <clipPath id="clippath-17">
      <rect class="cls-4" x="137.1" y="33.4" width="43.7" height="43.7" transform="translate(269.9 -71.3) rotate(112.1)"/>
    </clipPath>
  </defs>
  <g class="cls-17">
    <path class="cls-3" d="M169.9-4.6c0-2.4-.9-3.6-2.8-3.6h-1.7V-.7h1.9c1.8,0,2.6-1.3,2.6-3.9Z"/>
    <path class="cls-3" d="M167,1.1h-1.7v8.5h1.8c2.3,0,3.5-1.3,3.5-4s-1.2-4.5-3.6-4.5Z"/>
    <path class="cls-3" d="M146.9-8.6c-1.2,0-2,.6-2.4,1.9-.4,1.3-.6,3.7-.6,7.4s.2,6.1.6,7.4c.4,1.3,1.2,1.9,2.4,1.9s2-.6,2.4-1.9c.4-1.3.6-3.8.6-7.4s-.2-6.1-.6-7.4c-.4-1.3-1.2-1.9-2.4-1.9Z"/>
    <path class="cls-3" d="M199.1-28.3v-8.6h-69V29.2c0,3.2,2.6,5.8,5.8,5.8h57.5c3.2,0,5.8-2.6,5.8-5.8v-13.7c11.6-.6,20.8-10.2,20.8-22s-9.2-21.3-20.8-21.8ZM146.9,11.7c-6.3,0-9.5-3.8-9.5-11.3s3.2-10.8,9.6-10.8,9.3,3.7,9.3,11-3.2,11-9.5,11ZM169.7,11.4h-10.5V-9.9h9.5c4.9,0,7.3,1.7,7.3,5.2s-1.5,4.1-4.4,4.8c3.5.7,5.3,2.6,5.3,5.7s-2.4,5.7-7.2,5.7ZM188.9,3.5v7.9h-6.2V3.5l-5.7-13.4h6.4l4.3,10.3,3.9-10.3h2.5l-5.2,13.4ZM199.3,7v-26.6c6.9.6,12.2,6.3,12.2,13.2s-5.5,12.8-12.2,13.4Z"/>
    <path class="cls-3" d="M163.3-61.9c0,1.2-.4,2.3-1.3,3-1.2,1.2-1.2,2.9,0,4,.6.6,1.3.9,2,.9s1.4-.3,2-.9c1.9-1.9,3-4.5,3-7.2s-1-5.2-3-7c-1.7-1.7-1.7-4.5,0-6,1.2-1.1,1.2-2.9,0-4-1.1-1.2-2.9-1.2-4,0-4,3.9-4,10.3,0,14.2.9.9,1.3,1.9,1.3,3Z"/>
    <path class="cls-3" d="M177.7-50.5c-1.2,1.1-1.2,2.9,0,4,.6.6,1.3.9,2,.9s1.4-.3,2-.9c3.9-3.9,3.9-10.3,0-14.2-.9-.9-1.3-1.9-1.3-3s.4-2.3,1.3-3c1.2-1.2,1.2-2.9,0-4-1.1-1.1-2.9-1.1-4,0-1.9,1.9-3,4.5-3,7.2.1,2.7,1.2,5.2,3,7,1.7,1.7,1.7,4.5,0,6Z"/>
    <path class="cls-3" d="M149-53.6c0,1.1-.4,2.3-1.3,3-1.2,1.1-1.2,2.9,0,4,.6.6,1.3.9,2,.9s1.4-.3,2-.9c1.9-1.9,3-4.5,3-7.2s-1-5.2-3-7.2-1.7-4.5,0-6c1.2-1.2,1.2-2.9,0-4s-2.9-1.1-4,0c-4,4.2-4,10.5,0,14.4.9.9,1.3,1.9,1.3,3Z"/>
  </g>
  <text class="cls-5" transform="translate(253.9 19.1)"><tspan x="0" y="0">Order By Yourself</tspan></text>
  <g class="cls-17">
    <g class="cls-15">
      <g class="cls-11">
        <g class="cls-6">
          <g>
            <path class="cls-3" d="M859.1-35.2c3.7,6.5,10.9,9.3,16.1,6.3,5.1-3,6.3-10.6,2.5-17.1-3.7-6.5-10.9-9.3-16.1-6.3-5.1,3-6.3,10.6-2.5,17.1ZM861-47.6c.5-.9,1.3-1.6,2.2-2.2,0,0,.2,0,.3-.1.8,3.6,3.5,5.9,6.4,8.4,2.5,2.2,5.1,4.4,6.3,7.5-.5,1.1-1.3,1.9-2.3,2.5h0c-.5-3.2-3-5.3-5.8-7.8-2.6-2.3-5.5-4.7-6.8-8.3Z"/>
            <path class="cls-3" d="M856.8-61.4c7,2.6,14.3.2,16.4-5.4,2.1-5.6-1.9-12.2-8.9-14.8-7-2.6-14.3-.2-16.4,5.4s1.9,12.2,8.9,14.8ZM850.6-75.2c0,0,0-.2.1-.3,2.9,2.2,6.5,2.3,10.2,2.4,3.3,0,6.7.2,9.6,1.8.3,1.1.2,2.3-.2,3.5,0,0,0,0,0,0-2.4-2.1-5.7-2.2-9.5-2.3-3.4,0-7.2-.2-10.6-2.1-.2-1,0-2.1.3-3Z"/>
            <path class="cls-3" d="M889.7-49.8c5.9.7,11.4-4.7,12.3-12.1.9-7.4-3.1-14-9-14.7-5.9-.7-11.4,4.7-12.3,12.1-.9,7.4,3.1,14,9,14.7ZM890-62.5c-.7-3.4-1.5-7.1-.4-10.7.9-.4,2-.6,3-.4,0,0,.2,0,.3,0-1.5,3.3-.7,6.8,0,10.5.7,3.2,1.4,6.6.5,9.8h0c-1,.5-2.2.7-3.4.6,0,0,0,0,0,0,1.5-2.9.8-6.1,0-9.7Z"/>
          </g>
        </g>
      </g>
    </g>
    <g class="cls-16">
      <g class="cls-12">
        <g class="cls-21">
          <g>
            <path class="cls-3" d="M797-71.8c-4.3,4.9-4.6,11.6-.7,15,3.9,3.4,10.5,2.2,14.8-2.7,4.3-4.9,4.6-11.6.7-15-3.9-3.4-10.5-2.2-14.8,2.7ZM807.7-73.7c.9.2,1.7.6,2.4,1.2,0,0,.1.1.2.2-2.7,1.7-3.9,4.6-5.1,7.6-1.1,2.7-2.2,5.4-4.4,7.2-1-.1-2-.6-2.7-1.2h0c2.5-1.4,3.6-4,4.8-7,1.1-2.8,2.4-5.8,5-7.9Z"/>
            <path class="cls-3" d="M817.9-81c-.2,6.5,3.9,11.9,9,12,5.2.1,9.5-5,9.7-11.5.2-6.5-3.9-11.9-9-12-5.2-.1-9.5,5-9.7,11.5ZM827.5-89.9c0,0,.2,0,.3,0-1,3,0,6,.9,9.1.9,2.8,1.7,5.6,1.2,8.4-.9.5-1.9.8-2.9.8,0,0,0,0,0,0,1.1-2.6.2-5.3-.8-8.4-.9-2.9-1.9-6-1.3-9.3.8-.4,1.7-.6,2.6-.6Z"/>
            <path class="cls-3" d="M817.6-50.6c1,5.1,7,8.1,13.4,6.8,6.4-1.3,10.7-6.5,9.6-11.5-1-5.1-7-8.1-13.4-6.8-6.4,1.3-10.7,6.5-9.6,11.5ZM828.1-53.9c2.6-1.5,5.4-3.2,8.7-3.3.6.7,1,1.5,1.2,2.4,0,0,0,.2,0,.2-3.2-.3-5.8,1.3-8.7,3-2.5,1.5-5,3-7.9,3.1h0c-.7-.7-1.2-1.6-1.4-2.6,0,0,0,0,0,0,2.8.4,5.2-1,8-2.7Z"/>
          </g>
        </g>
      </g>
    </g>
    <g class="cls-9">
      <g class="cls-10">
        <g class="cls-18">
          <g>
            <path class="cls-3" d="M767.4-49.8c4.4,1.4,8.8-.3,9.9-3.8,1.1-3.5-1.5-7.4-5.9-8.8-4.4-1.4-8.8.3-9.9,3.8-1.1,3.5,1.5,7.4,5.9,8.8ZM763.2-56.2c-.1-.6-.1-1.3,0-1.9,0,0,0-.1,0-.2,1.8,1.3,4,1.2,6.3,1.2,2,0,4.1,0,5.9.8.2.7.2,1.4,0,2.1h0c-1.6-1.2-3.6-1.1-5.9-1.1-2.1,0-4.4.1-6.5-1Z"/>
            <path class="cls-3" d="M755.6-60.7c4.2-1.7,6.6-5.8,5.2-9.2-1.4-3.4-5.9-4.7-10.1-3-4.2,1.7-6.6,5.8-5.2,9.2,1.4,3.4,5.9,4.7,10.1,3ZM747.1-64.4c0,0,0-.1,0-.2,2.2-.2,3.9-1.6,5.6-3.1,1.5-1.3,3.1-2.7,5.1-3.2.6.4,1.1,1,1.3,1.6,0,0,0,0,0,0-2,0-3.5,1.4-5.2,2.9-1.6,1.4-3.3,2.9-5.6,3.4-.5-.4-.9-.9-1.1-1.5Z"/>
            <path class="cls-3" d="M775.2-69c3-2.1,3.2-6.8.6-10.6-2.6-3.7-7.2-5.1-10.2-3-3,2.1-3.2,6.8-.6,10.6,2.6,3.7,7.2,5.1,10.2,3ZM770.2-74.9c-1.7-1.2-3.6-2.6-4.6-4.7.3-.6.7-1.1,1.2-1.4,0,0,.1,0,.2,0,.7,2.1,2.5,3.4,4.3,4.7,1.7,1.2,3.3,2.4,4.2,4.2h0c-.3.7-.7,1.3-1.3,1.7,0,0,0,0,0,0-.5-1.9-2.2-3.1-4-4.4Z"/>
          </g>
        </g>
      </g>
    </g>
  </g>
  <g>
    <g class="cls-14">
      <g class="cls-22">
        <g class="cls-1">
          <g>
            <path class="cls-3" d="M64.4,22.3c-3.7-6.5-10.9-9.3-16.1-6.3-5.1,3-6.3,10.6-2.5,17.1,3.7,6.5,10.9,9.3,16.1,6.3,5.1-3,6.3-10.6,2.5-17.1ZM62.5,34.7c-.5.9-1.3,1.6-2.2,2.2,0,0-.2,0-.3.1-.8-3.6-3.5-5.9-6.4-8.4-2.5-2.2-5.1-4.4-6.3-7.5.5-1.1,1.3-1.9,2.3-2.5h0c.5,3.2,3,5.3,5.8,7.8,2.6,2.3,5.5,4.7,6.8,8.3Z"/>
            <path class="cls-3" d="M66.7,48.5c-7-2.6-14.3-.2-16.4,5.4-2.1,5.6,1.9,12.2,8.9,14.8,7,2.6,14.3.2,16.4-5.4s-1.9-12.2-8.9-14.8ZM72.8,62.3c0,0,0,.2-.1.3-2.9-2.2-6.5-2.3-10.2-2.4-3.3,0-6.7-.2-9.6-1.8-.3-1.1-.2-2.3.2-3.5,0,0,0,0,0,0,2.4,2.1,5.7,2.2,9.5,2.3,3.4,0,7.2.2,10.6,2.1.2,1,0,2.1-.3,3Z"/>
            <path class="cls-3" d="M33.8,37c-5.9-.7-11.4,4.7-12.3,12.1-.9,7.4,3.1,14,9,14.7,5.9.7,11.4-4.7,12.3-12.1.9-7.4-3.1-14-9-14.7ZM33.4,49.6c.7,3.4,1.5,7.1.4,10.7-.9.4-2,.6-3,.4,0,0-.2,0-.3,0,1.5-3.3.7-6.8,0-10.5-.7-3.2-1.4-6.6-.5-9.8h0c1-.5,2.2-.7,3.4-.6,0,0,0,0,0,0-1.5,2.9-.8,6.1,0,9.7Z"/>
          </g>
        </g>
      </g>
    </g>
    <g class="cls-13">
      <g class="cls-7">
        <g class="cls-19">
          <g>
            <path class="cls-3" d="M126.5,58.9c4.3-4.9,4.6-11.6.7-15-3.9-3.4-10.5-2.2-14.8,2.7-4.3,4.9-4.6,11.6-.7,15,3.9,3.4,10.5,2.2,14.8-2.7ZM115.8,60.8c-.9-.2-1.7-.6-2.4-1.2,0,0-.1-.1-.2-.2,2.7-1.7,3.9-4.6,5.1-7.6,1.1-2.7,2.2-5.4,4.4-7.2,1,.1,2,.6,2.7,1.2h0c-2.5,1.4-3.6,4-4.8,7-1.1,2.8-2.4,5.8-5,7.9Z"/>
            <path class="cls-3" d="M105.5,68.1c.2-6.5-3.9-11.9-9-12-5.2-.1-9.5,5-9.7,11.5-.2,6.5,3.9,11.9,9,12,5.2.1,9.5-5,9.7-11.5ZM95.9,77c0,0-.2,0-.3,0,1-3,0-6-.9-9.1-.9-2.8-1.7-5.6-1.2-8.4.9-.5,1.9-.8,2.9-.8,0,0,0,0,0,0-1.1,2.6-.2,5.3.8,8.4.9,2.9,1.9,6,1.3,9.3-.8.4-1.7.6-2.6.6Z"/>
            <path class="cls-3" d="M105.9,37.7c-1-5.1-7-8.1-13.4-6.8-6.4,1.3-10.7,6.5-9.6,11.5,1,5.1,7,8.1,13.4,6.8,6.4-1.3,10.7-6.5,9.6-11.5ZM95.4,41c-2.6,1.5-5.4,3.2-8.7,3.3-.6-.7-1-1.5-1.2-2.4,0,0,0-.2,0-.2,3.2.3,5.8-1.3,8.7-3,2.5-1.5,5-3,7.9-3.1h0c.7.7,1.2,1.6,1.4,2.6,0,0,0,0,0,0-2.8-.4-5.2,1-8,2.7Z"/>
          </g>
        </g>
      </g>
    </g>
    <g class="cls-8">
      <g class="cls-2">
        <g class="cls-20">
          <g>
            <path class="cls-3" d="M156.1,36.9c-4.4-1.4-8.8.3-9.9,3.8-1.1,3.5,1.5,7.4,5.9,8.8,4.4,1.4,8.8-.3,9.9-3.8,1.1-3.5-1.5-7.4-5.9-8.8ZM160.3,43.3c.1.6.1,1.3,0,1.9,0,0,0,.1,0,.2-1.8-1.3-4-1.2-6.3-1.2-2,0-4.1,0-5.9-.8-.2-.7-.2-1.4,0-2.1h0c1.6,1.2,3.6,1.1,5.9,1.1,2.1,0,4.4-.1,6.5,1Z"/>
            <path class="cls-3" d="M167.9,47.8c-4.2,1.7-6.6,5.8-5.2,9.2,1.4,3.4,5.9,4.7,10.1,3,4.2-1.7,6.6-5.8,5.2-9.2-1.4-3.4-5.9-4.7-10.1-3ZM176.4,51.5c0,0,0,.1,0,.2-2.2.2-3.9,1.6-5.6,3.1-1.5,1.3-3.1,2.7-5.1,3.2-.6-.4-1.1-1-1.3-1.6,0,0,0,0,0,0,2,0,3.5-1.4,5.2-2.9,1.6-1.4,3.3-2.9,5.6-3.4.5.4.9.9,1.1,1.5Z"/>
            <path class="cls-3" d="M148.2,56.2c-3,2.1-3.2,6.8-.6,10.6,2.6,3.7,7.2,5.1,10.2,3,3-2.1,3.2-6.8.6-10.6-2.6-3.7-7.2-5.1-10.2-3ZM153.3,62c1.7,1.2,3.6,2.6,4.6,4.7-.3.6-.7,1.1-1.2,1.4,0,0-.1,0-.2,0-.7-2.1-2.5-3.4-4.3-4.7-1.7-1.2-3.3-2.4-4.2-4.2h0c.3-.7.7-1.3,1.3-1.7,0,0,0,0,0,0,.5,1.9,2.2,3.1,4,4.4Z"/>
          </g>
        </g>
      </g>
    </g>
  </g>
</svg>