<?xml version="1.0" encoding="utf-8"?>
<!-- Generator: Adobe Illustrator 28.5.0, SVG Export Plug-In . SVG Version: 9.03 Build 54727)  -->
<svg version="1.1" id="Layer_1" xmlns="http://www.w3.org/2000/svg" xmlns:xlink="http://www.w3.org/1999/xlink" x="0px" y="0px"
	 viewBox="0 0 885.4 175.7" style="enable-background:new 0 0 885.4 175.7;" xml:space="preserve">
<style type="text/css">
	.st0{enable-background:new    ;}
	.st1{clip-path:url(#SVGID_00000010274772639861192490000008571632812866530183_);}
	.st2{clip-path:url(#SVGID_00000002349156393959323860000001001721460543186567_);}
	.st3{clip-path:url(#SVGID_00000084531056690719680610000005643690643002149778_);}
	.st4{clip-path:url(#SVGID_00000072961533913288009040000010110954770744138633_);}
	.st5{clip-path:url(#SVGID_00000111160688087458153510000002380246951272165517_);}
	.st6{clip-path:url(#SVGID_00000110467748463800834710000000834899669294074536_);}
	.st7{clip-path:url(#SVGID_00000118360733108324511610000012030025318359976594_);}
	.st8{clip-path:url(#SVGID_00000018935477941589243340000003622823683246731451_);}
	.st9{clip-path:url(#SVGID_00000139295317087847493490000010303285318066716576_);}
	.st10{clip-path:url(#SVGID_00000182521046781240852390000017856056665775113910_);}
	.st11{clip-path:url(#SVGID_00000056424423676355307110000001811637033532575383_);}
	.st12{clip-path:url(#SVGID_00000108987530538663541610000014742888079463264175_);}
	.st13{clip-path:url(#SVGID_00000036240594756821224990000009982291370397880722_);}
	.st14{clip-path:url(#SVGID_00000062879180970418765120000005954656642537650366_);}
	.st15{clip-path:url(#SVGID_00000162350981819931433850000018016184004250999726_);}
	.st16{clip-path:url(#SVGID_00000131337708465075495550000017835528557818330770_);}
	.st17{clip-path:url(#SVGID_00000096042883875381210120000004689696417181801874_);}
	.st18{clip-path:url(#SVGID_00000102538694228774573970000015353818050919890059_);}
</style>
<g>
	<path d="M152.8,83.2c0-2.4-0.9-3.6-2.8-3.6h-1.7v7.5h1.9C152,87.1,152.8,85.8,152.8,83.2z"/>
	<path d="M149.9,88.8h-1.7v8.5h1.8c2.3,0,3.5-1.3,3.5-4S152.3,88.8,149.9,88.8z"/>
	<path d="M129.9,79.1c-1.2,0-2,0.6-2.4,1.9s-0.6,3.7-0.6,7.4s0.2,6.1,0.6,7.4s1.2,1.9,2.4,1.9s2-0.6,2.4-1.9s0.6-3.8,0.6-7.4
		s-0.2-6.1-0.6-7.4C131.9,79.7,131.1,79.1,129.9,79.1z"/>
	<path d="M182.1,59.5v-8.6h-69V117c0,3.2,2.6,5.8,5.8,5.8h57.5c3.2,0,5.8-2.6,5.8-5.8v-13.7c11.6-0.6,20.8-10.2,20.8-22
		s-9.2-21.3-20.8-21.8L182.1,59.5z M129.9,99.5c-6.3,0-9.5-3.8-9.5-11.3s3.2-10.8,9.6-10.8s9.3,3.7,9.3,11s-3.2,11-9.5,11
		L129.9,99.5z M152.6,99.1h-10.5V77.8h9.5c4.9,0,7.3,1.7,7.3,5.2s-1.5,4.1-4.4,4.8c3.5,0.7,5.3,2.6,5.3,5.7S157.4,99.2,152.6,99.1
		L152.6,99.1z M171.9,91.2v7.9h-6.2v-7.9L160,77.8h6.4l4.3,10.3l3.9-10.3h2.5L171.9,91.2z M182.2,94.7V68.1
		c6.9,0.6,12.2,6.3,12.2,13.2S188.9,94.1,182.2,94.7z"/>
	<path d="M146.3,25.8c0,1.2-0.4,2.3-1.3,3c-1.2,1.2-1.2,2.9,0,4c0.6,0.6,1.3,0.9,2,0.9s1.4-0.3,2-0.9c1.9-1.9,3-4.5,3-7.2
		s-1-5.2-3-7c-1.7-1.7-1.7-4.5,0-6c1.2-1.1,1.2-2.9,0-4c-1.1-1.2-2.9-1.2-4,0c-4,3.9-4,10.3,0,14.2
		C145.9,23.7,146.3,24.7,146.3,25.8z"/>
	<path d="M160.6,37.2c-1.2,1.1-1.2,2.9,0,4c0.6,0.6,1.3,0.9,2,0.9s1.4-0.3,2-0.9c3.9-3.9,3.9-10.3,0-14.2c-0.9-0.9-1.3-1.9-1.3-3
		s0.4-2.3,1.3-3c1.2-1.2,1.2-2.9,0-4c-1.1-1.1-2.9-1.1-4,0c-1.9,1.9-3,4.5-3,7.2c0.1,2.7,1.2,5.2,3,7
		C162.3,32.9,162.3,35.7,160.6,37.2z"/>
	<path d="M131.9,34.2c0,1.1-0.4,2.3-1.3,3c-1.2,1.1-1.2,2.9,0,4c0.6,0.6,1.3,0.9,2,0.9s1.4-0.3,2-0.9c1.9-1.9,3-4.5,3-7.2
		s-1-5.2-3-7.2s-1.7-4.5,0-6c1.2-1.2,1.2-2.9,0-4s-2.9-1.1-4,0c-4,4.2-4,10.5,0,14.4C131.5,32.1,131.9,33.1,131.9,34.2z"/>
</g>
<g class="st0">
	<path d="M258.8,65c14,0,21,8.3,21,24.8s-7.1,24.8-21.3,24.8c-14.2,0-21.3-8.5-21.3-25.4C237,73.1,244.3,65,258.8,65z M258.4,68.8
		c-2.6,0-4.4,1.4-5.3,4.3c-0.9,2.9-1.4,8.4-1.4,16.6s0.5,13.8,1.4,16.6c0.9,2.9,2.7,4.3,5.3,4.3c2.6,0,4.4-1.4,5.3-4.3
		c0.9-2.9,1.4-8.4,1.4-16.6c0-8.2-0.5-13.7-1.4-16.6C262.8,70.3,261,68.8,258.4,68.8z"/>
	<path d="M310.8,91.2H302c0.3-1.4,0.6-2.4,0.8-3.1c0.3-1,0.5-1.8,0.5-2.6c0-1.5-0.5-2.2-1.6-2.2c-0.8,0-1.6,1-2.4,3
		c-0.8,2-1.1,4.1-1.1,6.3v21.2h-12.8V78.4l2.5,0c3,0,6.4-0.3,10.3-0.9v5.8c2.1-3.9,4.6-5.8,7.7-5.8c4.1,0,6.2,2.3,6.2,6.8
		c0,1.2-0.2,2.6-0.6,4.1C311.3,89,311.1,90,310.8,91.2z"/>
	<path d="M347.9,65.1v48.7H335v-3.1c-2.2,2.6-5,3.9-8.6,3.9c-8,0-12-6.1-12-18.4c0-12.6,4.2-18.9,12.7-18.9c3.3,0,6,1.5,7.9,4.4v-16
		C338.9,65.8,343.2,65.6,347.9,65.1z M331.2,82.5c-2.2,0-3.2,2-3.2,5.9l-0.2,7.5l0.1,6.9c0,4.4,1.2,6.6,3.7,6.6
		c2.4,0,3.6-2.2,3.6-6.5l0.2-8.6l-0.3-5.9C334.6,84.5,333.4,82.5,331.2,82.5z"/>
	<path d="M380.2,100.8l5.2,1.5c-0.5,8.2-5.4,12.3-14.5,12.3c-11.8,0-17.7-5.9-17.7-17.7c0-5.7,1.6-10.4,4.7-14.1
		c3.1-3.7,7.2-5.5,12.1-5.5c10.2,0,15.4,6.6,15.4,19.8h-18.7c0,9.3,2.4,13.9,7.1,13.9c4.4,0,6.6-2.6,6.6-7.9
		C380.3,102.5,380.3,101.7,380.2,100.8z M366.6,93.2h7.7c0-8.2-1.2-12.4-3.7-12.4c-2.2,0-3.5,3.1-3.8,9.2L366.6,93.2z"/>
	<path d="M416.3,91.2h-8.8c0.3-1.4,0.6-2.4,0.8-3.1c0.3-1,0.5-1.8,0.5-2.6c0-1.5-0.5-2.2-1.6-2.2c-0.8,0-1.6,1-2.4,3
		c-0.8,2-1.1,4.1-1.1,6.3v21.2h-12.8V78.4l2.5,0c3,0,6.4-0.3,10.3-0.9v5.8c2.1-3.9,4.6-5.8,7.7-5.8c4.1,0,6.2,2.3,6.2,6.8
		c0,1.2-0.2,2.6-0.6,4.1C416.8,89,416.6,90,416.3,91.2z"/>
	<path d="M443.8,113.8v-48h21.3c11,0,16.5,3.9,16.5,11.8c0,5.6-3.3,9.2-9.9,10.7c8,1.6,12,5.8,12,12.7c0,8.5-5.4,12.8-16.1,12.8
		H443.8z M457.7,86.7h4.3c4,0,5.9-2.9,5.9-8.8c0-5.4-2.1-8.1-6.3-8.1h-3.9V86.7z M457.7,109.8h4c5.2,0,7.8-3,7.8-8.9
		c0-6.8-2.7-10.2-8.1-10.2h-3.7V109.8z"/>
	<path d="M518.2,78.4l-16.2,40c-2.2,5.5-5.2,8.2-9,8.2c-3.7,0-6.1-1.6-7.5-4.7l4.4-3.2c0.4,2.7,1.3,4,3,4c1.9,0,3.4-1.6,4.5-4.7
		l0.9-2.5l-14.3-37.2h14.1l7.1,20.8l8.1-20.8H518.2z"/>
	<path d="M576.6,65.8l-11.7,30.3v17.7H551V96.1L538,65.8h14.4l9.8,23.1l8.8-23.1H576.6z"/>
	<path d="M595.1,77.4c11.7,0,17.6,6.2,17.6,18.6s-5.9,18.6-17.6,18.6c-11.7,0-17.6-6.2-17.6-18.6S583.4,77.4,595.1,77.4z
		 M595.1,80.6c-2.8,0-4.3,5.1-4.3,15.4s1.4,15.4,4.3,15.4c2.9,0,4.3-5.1,4.3-15.4S598,80.6,595.1,80.6z"/>
	<path d="M651.8,77.4v36.4H639v-5.7c-3,4.2-6.8,6.3-11.4,6.3c-6.3,0-9.4-3-9.4-9.1v-27c4.3-0.2,8.6-0.5,12.8-0.9V105
		c0,2.4,0.7,3.6,2.2,3.6c3.8,0,5.8-4.1,5.8-12.4V78.4C643.3,78.2,647.5,77.9,651.8,77.4z"/>
	<path d="M684.5,91.2h-8.8c0.3-1.4,0.6-2.4,0.8-3.1c0.3-1,0.5-1.8,0.5-2.6c0-1.5-0.5-2.2-1.6-2.2c-0.8,0-1.6,1-2.4,3
		s-1.1,4.1-1.1,6.3v21.2h-12.8V78.4l2.5,0c3,0,6.4-0.3,10.3-0.9v5.8c2.1-3.9,4.6-5.8,7.7-5.8c4.1,0,6.2,2.3,6.2,6.8
		c0,1.2-0.2,2.6-0.6,4.1C685,89,684.8,90,684.5,91.2z"/>
	<path d="M717.5,87.5l-6.2,1.1c0-5.3-2.5-7.9-7.4-7.9c-3,0-4.5,1.2-4.5,3.7c0,1.8,2.6,3.8,7.8,5.9c8,3.3,12,7.4,12,12.4
		c0,8-5.1,12-15.2,12c-10.7,0-16.1-4-16.1-12l6.6-1.3c-0.1,0.8-0.1,1.5-0.1,2.2c0,2.1,0.9,3.9,2.6,5.4s3.8,2.3,6.1,2.3
		c3.1,0,4.6-1.3,4.6-3.9c0-1.8-2.5-3.7-7.5-5.8c-7.5-3.2-11.3-7.4-11.3-12.4c0-3.4,1.4-6.1,4.3-8.2s6.6-3.2,11.1-3.2
		C712.3,77.5,716.7,80.8,717.5,87.5z"/>
	<path d="M749.5,100.8l5.2,1.5c-0.5,8.2-5.4,12.3-14.5,12.3c-11.8,0-17.7-5.9-17.7-17.7c0-5.7,1.6-10.4,4.7-14.1s7.2-5.5,12.1-5.5
		c10.2,0,15.4,6.6,15.4,19.8h-18.7c0,9.3,2.4,13.9,7.1,13.9c4.4,0,6.6-2.6,6.6-7.9C749.6,102.5,749.6,101.7,749.5,100.8z
		 M735.9,93.2h7.7c0-8.2-1.2-12.4-3.7-12.4c-2.2,0-3.5,3.1-3.8,9.2L735.9,93.2z"/>
	<path d="M772.9,65.1v48.7H760v-48C763.6,65.8,767.8,65.6,772.9,65.1z"/>
	<path d="M798.4,78.4v4h-5.1v31.5h-12.8V82.3H776v-4h4.5v-3.2c0-2.9,1-5.3,3.1-7.2s4.6-2.9,7.7-2.9c6.2,0,9.3,2.3,9.3,7
		c0,0.4,0,0.8,0,1.3l-6.1,2.1c0.3-1.2,0.5-2.2,0.5-2.9c0-2.5-0.9-3.7-2.6-3.7c-1.5,0-2.2,1.1-2.2,3.3c0,1.3,1.1,3.4,3.2,6.2H798.4z"
		/>
</g>
<g>
	<g>
		<defs>
			
				<rect id="SVGID_1_" x="821.3" y="-1.1" transform="matrix(0.9018 -0.4321 0.4321 0.9018 69.1604 373.7401)" width="71.5" height="71.5"/>
		</defs>
		<clipPath id="SVGID_00000060742299520277383220000011277402763594293124_">
			<use xlink:href="#SVGID_1_"  style="overflow:visible;"/>
		</clipPath>
		<g style="clip-path:url(#SVGID_00000060742299520277383220000011277402763594293124_);">
			<g>
				<defs>
					
						<rect id="SVGID_00000167356159933854354920000010230235550176067004_" x="821.3" y="-1.1" transform="matrix(0.9018 -0.4321 0.4321 0.9018 69.1604 373.7401)" width="71.5" height="71.5"/>
				</defs>
				<clipPath id="SVGID_00000000921819871979693620000016962251639626483585_">
					<use xlink:href="#SVGID_00000167356159933854354920000010230235550176067004_"  style="overflow:visible;"/>
				</clipPath>
				<g style="clip-path:url(#SVGID_00000000921819871979693620000016962251639626483585_);">
					<g>
						<defs>
							
								<rect id="SVGID_00000134944699073142740260000000150352172647454371_" x="821.3" y="-1.1" transform="matrix(0.9018 -0.4321 0.4321 0.9018 69.1604 373.7401)" width="71.5" height="71.5"/>
						</defs>
						<clipPath id="SVGID_00000165216779762276068730000003305332118823485845_">
							<use xlink:href="#SVGID_00000134944699073142740260000000150352172647454371_"  style="overflow:visible;"/>
						</clipPath>
						<g style="clip-path:url(#SVGID_00000165216779762276068730000003305332118823485845_);">
							<g>
								<path d="M840.1,59.5c3.7,6.5,10.9,9.3,16.1,6.3c5.1-3,6.3-10.6,2.5-17.1c-3.7-6.5-10.9-9.3-16.1-6.3
									C837.5,45.4,836.3,53,840.1,59.5z M842,47.1c0.5-0.9,1.3-1.6,2.2-2.2c0,0,0.2,0,0.3-0.1c0.8,3.6,3.5,5.9,6.4,8.4
									c2.5,2.2,5.1,4.4,6.3,7.5c-0.5,1.1-1.3,1.9-2.3,2.5l0,0c-0.5-3.2-3-5.3-5.8-7.8c-2.6-2.3-5.5-4.7-6.8-8.3H842z"/>
								<path d="M837.8,33.2c7,2.6,14.3,0.2,16.4-5.4c2.1-5.6-1.9-12.2-8.9-14.8s-14.3-0.2-16.4,5.4S830.8,30.6,837.8,33.2z
									 M831.7,19.5c0,0,0-0.2,0.1-0.3c2.9,2.2,6.5,2.3,10.2,2.4c3.3,0,6.7,0.2,9.6,1.8c0.3,1.1,0.2,2.3-0.2,3.5l0,0
									c-2.4-2.1-5.7-2.2-9.5-2.3c-3.4,0-7.2-0.2-10.6-2.1c-0.2-1,0-2.1,0.3-3H831.7z"/>
								<path d="M870.7,44.8c5.9,0.7,11.4-4.7,12.3-12.1c0.9-7.4-3.1-14-9-14.7s-11.4,4.7-12.3,12.1
									C860.8,37.5,864.8,44.1,870.7,44.8z M871.1,32.1c-0.7-3.4-1.5-7.1-0.4-10.7c0.9-0.4,2-0.6,3-0.4c0,0,0.2,0,0.3,0
									c-1.5,3.3-0.7,6.8,0,10.5c0.7,3.2,1.4,6.6,0.5,9.8l0,0c-1,0.5-2.2,0.7-3.4,0.6l0,0C872.6,39,871.9,35.8,871.1,32.1
									L871.1,32.1z"/>
							</g>
						</g>
					</g>
				</g>
			</g>
		</g>
	</g>
	<g>
		<defs>
			
				<rect id="SVGID_00000062910581791926484240000007346256419072137909_" x="772.8" y="-1.1" transform="matrix(0.7157 -0.6984 0.6984 0.7157 207.5881 569.9696)" width="62.2" height="62.2"/>
		</defs>
		<clipPath id="SVGID_00000177447447418417551440000000265882090982819971_">
			<use xlink:href="#SVGID_00000062910581791926484240000007346256419072137909_"  style="overflow:visible;"/>
		</clipPath>
		<g style="clip-path:url(#SVGID_00000177447447418417551440000000265882090982819971_);">
			<g>
				<defs>
					
						<rect id="SVGID_00000129899172104817498810000008031166433870426298_" x="772.8" y="-1.1" transform="matrix(0.7157 -0.6984 0.6984 0.7157 207.5881 569.9696)" width="62.2" height="62.2"/>
				</defs>
				<clipPath id="SVGID_00000018933860548136847950000016996782472631914887_">
					<use xlink:href="#SVGID_00000129899172104817498810000008031166433870426298_"  style="overflow:visible;"/>
				</clipPath>
				<g style="clip-path:url(#SVGID_00000018933860548136847950000016996782472631914887_);">
					<g>
						<defs>
							
								<rect id="SVGID_00000080905745992906308240000011760494906878697138_" x="772.8" y="-1.1" transform="matrix(0.7157 -0.6984 0.6984 0.7157 207.5884 569.97)" width="62.2" height="62.2"/>
						</defs>
						<clipPath id="SVGID_00000046300614891101651120000005321912903564232875_">
							<use xlink:href="#SVGID_00000080905745992906308240000011760494906878697138_"  style="overflow:visible;"/>
						</clipPath>
						<g style="clip-path:url(#SVGID_00000046300614891101651120000005321912903564232875_);">
							<g>
								<path d="M778,22.9c-4.3,4.9-4.6,11.6-0.7,15c3.9,3.4,10.5,2.2,14.8-2.7s4.6-11.6,0.7-15C788.9,16.8,782.3,18,778,22.9z
									 M788.7,21c0.9,0.2,1.7,0.6,2.4,1.2c0,0,0.1,0.1,0.2,0.2c-2.7,1.7-3.9,4.6-5.1,7.6c-1.1,2.7-2.2,5.4-4.4,7.2
									c-1-0.1-2-0.6-2.7-1.2l0,0c2.5-1.4,3.6-4,4.8-7c1.1-2.8,2.4-5.8,5-7.9L788.7,21z"/>
								<path d="M799,13.7c-0.2,6.5,3.9,11.9,9,12c5.2,0.1,9.5-5,9.7-11.5s-3.9-11.9-9-12C803.5,2.1,799.2,7.2,799,13.7z M808.6,4.8
									c0,0,0.2,0,0.3,0c-1,3,0,6,0.9,9.1c0.9,2.8,1.7,5.6,1.2,8.4c-0.9,0.5-1.9,0.8-2.9,0.8l0,0c1.1-2.6,0.2-5.3-0.8-8.4
									c-0.9-2.9-1.9-6-1.3-9.3C806.8,5,807.7,4.8,808.6,4.8z"/>
								<path d="M798.6,44.1c1,5.1,7,8.1,13.4,6.8s10.7-6.5,9.6-11.5c-1-5.1-7-8.1-13.4-6.8C801.8,33.9,797.5,39.1,798.6,44.1z
									 M809.2,40.8c2.6-1.5,5.4-3.2,8.7-3.3c0.6,0.7,1,1.5,1.2,2.4v0.2c-3.2-0.3-5.8,1.3-8.7,3c-2.5,1.5-5,3-7.9,3.1l0,0
									c-0.7-0.7-1.2-1.6-1.4-2.6l0,0c2.8,0.4,5.2-1,8-2.7L809.2,40.8z"/>
							</g>
						</g>
					</g>
				</g>
			</g>
		</g>
	</g>
	<g>
		<defs>
			
				<rect id="SVGID_00000176003150529311330860000016384456990384194198_" x="724.3" y="4.9" transform="matrix(0.3762 -0.9265 0.9265 0.3762 440.5884 707.9865)" width="43.7" height="43.7"/>
		</defs>
		<clipPath id="SVGID_00000165226781043150778350000004149438439438139046_">
			<use xlink:href="#SVGID_00000176003150529311330860000016384456990384194198_"  style="overflow:visible;"/>
		</clipPath>
		<g style="clip-path:url(#SVGID_00000165226781043150778350000004149438439438139046_);">
			<g>
				<defs>
					
						<rect id="SVGID_00000083053981313699329790000010114652668858010027_" x="724.3" y="4.9" transform="matrix(0.3762 -0.9265 0.9265 0.3762 440.5884 707.9865)" width="43.7" height="43.7"/>
				</defs>
				<clipPath id="SVGID_00000114780104773532208340000006956125806048419470_">
					<use xlink:href="#SVGID_00000083053981313699329790000010114652668858010027_"  style="overflow:visible;"/>
				</clipPath>
				<g style="clip-path:url(#SVGID_00000114780104773532208340000006956125806048419470_);">
					<g>
						<defs>
							
								<rect id="SVGID_00000142152233444985921400000014816753491654982830_" x="724.3" y="4.9" transform="matrix(0.3762 -0.9265 0.9265 0.3762 440.5884 707.9865)" width="43.7" height="43.7"/>
						</defs>
						<clipPath id="SVGID_00000057146301225247754930000016480180116605970351_">
							<use xlink:href="#SVGID_00000142152233444985921400000014816753491654982830_"  style="overflow:visible;"/>
						</clipPath>
						<g style="clip-path:url(#SVGID_00000057146301225247754930000016480180116605970351_);">
							<g>
								<path d="M748.5,44.9c4.4,1.4,8.8-0.3,9.9-3.8c1.1-3.5-1.5-7.4-5.9-8.8c-4.4-1.4-8.8,0.3-9.9,3.8
									C741.5,39.6,744.1,43.5,748.5,44.9z M744.2,38.5c-0.1-0.6-0.1-1.3,0-1.9c0,0,0-0.1,0-0.2c1.8,1.3,4,1.2,6.3,1.2
									c2,0,4.1,0,5.9,0.8c0.2,0.7,0.2,1.4,0,2.1l0,0c-1.6-1.2-3.6-1.1-5.9-1.1c-2.1,0-4.4,0.1-6.5-1L744.2,38.5z"/>
								<path d="M736.6,33.9c4.2-1.7,6.6-5.8,5.2-9.2c-1.4-3.4-5.9-4.7-10.1-3c-4.2,1.7-6.6,5.8-5.2,9.2
									C727.9,34.3,732.4,35.6,736.6,33.9z M728.2,30.3c0,0,0-0.1,0-0.2c2.2-0.2,3.9-1.6,5.6-3.1c1.5-1.3,3.1-2.7,5.1-3.2
									c0.6,0.4,1.1,1,1.3,1.6l0,0c-2,0-3.5,1.4-5.2,2.9c-1.6,1.4-3.3,2.9-5.6,3.4c-0.5-0.4-0.9-0.9-1.1-1.5L728.2,30.3z"/>
								<path d="M756.3,25.6c3-2.1,3.2-6.8,0.6-10.6c-2.6-3.7-7.2-5.1-10.2-3s-3.2,6.8-0.6,10.6C748.7,26.3,753.3,27.7,756.3,25.6z
									 M751.2,19.7c-1.7-1.2-3.6-2.6-4.6-4.7c0.3-0.6,0.7-1.1,1.2-1.4c0,0,0.1,0,0.2,0c0.7,2.1,2.5,3.4,4.3,4.7
									c1.7,1.2,3.3,2.4,4.2,4.2l0,0c-0.3,0.7-0.7,1.3-1.3,1.7l0,0c-0.5-1.9-2.2-3.1-4-4.4L751.2,19.7z"/>
							</g>
						</g>
					</g>
				</g>
			</g>
		</g>
	</g>
</g>
<g>
	<g>
		<defs>
			
				<rect id="SVGID_00000004520173440562383750000014439164096600775833_" x="-7" y="106.6" transform="matrix(0.9018 -0.4321 0.4321 0.9018 -58.6822 26.4027)" width="71.5" height="71.5"/>
		</defs>
		<clipPath id="SVGID_00000116926862172981492170000002821578610231610752_">
			<use xlink:href="#SVGID_00000004520173440562383750000014439164096600775833_"  style="overflow:visible;"/>
		</clipPath>
		<g style="clip-path:url(#SVGID_00000116926862172981492170000002821578610231610752_);">
			<g>
				<defs>
					
						<rect id="SVGID_00000100350873921168465450000018007942606113670563_" x="-7" y="106.6" transform="matrix(0.9018 -0.4321 0.4321 0.9018 -58.6822 26.4027)" width="71.5" height="71.5"/>
				</defs>
				<clipPath id="SVGID_00000122696344594744755530000001087623714992496262_">
					<use xlink:href="#SVGID_00000100350873921168465450000018007942606113670563_"  style="overflow:visible;"/>
				</clipPath>
				<g style="clip-path:url(#SVGID_00000122696344594744755530000001087623714992496262_);">
					<g>
						<defs>
							
								<rect id="SVGID_00000089551655522915175180000009663359480188016270_" x="-7" y="106.6" transform="matrix(0.9018 -0.4321 0.4321 0.9018 -58.6822 26.4028)" width="71.5" height="71.5"/>
						</defs>
						<clipPath id="SVGID_00000168109685329884352670000008917845208845221305_">
							<use xlink:href="#SVGID_00000089551655522915175180000009663359480188016270_"  style="overflow:visible;"/>
						</clipPath>
						<g style="clip-path:url(#SVGID_00000168109685329884352670000008917845208845221305_);">
							<g>
								<path d="M45.5,117c-3.7-6.5-10.9-9.3-16.1-6.3c-5.1,3-6.3,10.6-2.5,17.1c3.7,6.5,10.9,9.3,16.1,6.3
									C48.1,131.1,49.3,123.5,45.5,117z M43.6,129.4c-0.5,0.9-1.3,1.6-2.2,2.2c0,0-0.2,0-0.3,0.1c-0.8-3.6-3.5-5.9-6.4-8.4
									c-2.5-2.2-5.1-4.4-6.3-7.5c0.5-1.1,1.3-1.9,2.3-2.5l0,0c0.5,3.2,3,5.3,5.8,7.8c2.6,2.3,5.5,4.7,6.8,8.3H43.6z"/>
								<path d="M47.8,143.2c-7-2.6-14.3-0.2-16.4,5.4c-2.1,5.6,1.9,12.2,8.9,14.8s14.3,0.2,16.4-5.4S54.8,145.8,47.8,143.2z
									 M53.9,157c0,0,0,0.2-0.1,0.3c-2.9-2.2-6.5-2.3-10.2-2.4c-3.3,0-6.7-0.2-9.6-1.8c-0.3-1.1-0.2-2.3,0.2-3.5l0,0
									c2.4,2.1,5.7,2.2,9.5,2.3c3.4,0,7.2,0.2,10.6,2.1c0.2,1,0,2.1-0.3,3L53.9,157z"/>
								<path d="M14.9,131.6c-5.9-0.7-11.4,4.7-12.3,12.1c-0.9,7.4,3.1,14,9,14.7s11.4-4.7,12.3-12.1
									C24.8,138.9,20.8,132.3,14.9,131.6z M14.5,144.3c0.7,3.4,1.5,7.1,0.4,10.7c-0.9,0.4-2,0.6-3,0.4c0,0-0.2,0-0.3,0
									c1.5-3.3,0.7-6.8,0-10.5c-0.7-3.2-1.4-6.6-0.5-9.8l0,0c1-0.5,2.2-0.7,3.4-0.6l0,0c-1.5,2.9-0.8,6.1,0,9.7V144.3z"/>
							</g>
						</g>
					</g>
				</g>
			</g>
		</g>
	</g>
	<g>
		<defs>
			
				<rect id="SVGID_00000156590082805424187500000010730823548364738953_" x="50.9" y="115.6" transform="matrix(0.7157 -0.6984 0.6984 0.7157 -79.164 98.9989)" width="62.2" height="62.2"/>
		</defs>
		<clipPath id="SVGID_00000073718920623186500970000010646083468430744246_">
			<use xlink:href="#SVGID_00000156590082805424187500000010730823548364738953_"  style="overflow:visible;"/>
		</clipPath>
		<g style="clip-path:url(#SVGID_00000073718920623186500970000010646083468430744246_);">
			<g>
				<defs>
					
						<rect id="SVGID_00000129168068695852920600000015532364038416548233_" x="50.9" y="115.6" transform="matrix(0.7157 -0.6984 0.6984 0.7157 -79.164 98.9989)" width="62.2" height="62.2"/>
				</defs>
				<clipPath id="SVGID_00000145756272478727503680000007213198119446442684_">
					<use xlink:href="#SVGID_00000129168068695852920600000015532364038416548233_"  style="overflow:visible;"/>
				</clipPath>
				<g style="clip-path:url(#SVGID_00000145756272478727503680000007213198119446442684_);">
					<g>
						<defs>
							
								<rect id="SVGID_00000004533959670505058230000004514334641735665594_" x="50.9" y="115.6" transform="matrix(0.7157 -0.6984 0.6984 0.7157 -79.164 98.9989)" width="62.2" height="62.2"/>
						</defs>
						<clipPath id="SVGID_00000050652144169748695180000005714153386898201759_">
							<use xlink:href="#SVGID_00000004533959670505058230000004514334641735665594_"  style="overflow:visible;"/>
						</clipPath>
						<g style="clip-path:url(#SVGID_00000050652144169748695180000005714153386898201759_);">
							<g>
								<path d="M107.6,153.6c4.3-4.9,4.6-11.6,0.7-15s-10.5-2.2-14.8,2.7s-4.6,11.6-0.7,15S103.3,158.5,107.6,153.6z M96.9,155.5
									c-0.9-0.2-1.7-0.6-2.4-1.2c0,0-0.1-0.1-0.2-0.2c2.7-1.7,3.9-4.6,5.1-7.6c1.1-2.7,2.2-5.4,4.4-7.2c1,0.1,2,0.6,2.7,1.2l0,0
									c-2.5,1.4-3.6,4-4.8,7c-1.1,2.8-2.4,5.8-5,7.9L96.9,155.5z"/>
								<path d="M86.6,162.8c0.2-6.5-3.9-11.9-9-12c-5.2-0.1-9.5,5-9.7,11.5s3.9,11.9,9,12C82.1,174.4,86.4,169.3,86.6,162.8z
									 M77,171.7c0,0-0.2,0-0.3,0c1-3,0-6-0.9-9.1c-0.9-2.8-1.7-5.6-1.2-8.4c0.9-0.5,1.9-0.8,2.9-0.8l0,0
									c-1.1,2.6-0.2,5.3,0.8,8.4c0.9,2.9,1.9,6,1.3,9.3C78.8,171.5,77.9,171.7,77,171.7z"/>
								<path d="M87,132.4c-1-5.1-7-8.1-13.4-6.8c-6.4,1.3-10.7,6.5-9.6,11.5c1,5.1,7,8.1,13.4,6.8S88.1,137.4,87,132.4z
									 M76.4,135.7c-2.6,1.5-5.4,3.2-8.7,3.3c-0.6-0.7-1-1.5-1.2-2.4v-0.2c3.2,0.3,5.8-1.3,8.7-3c2.5-1.5,5-3,7.9-3.1l0,0
									c0.7,0.7,1.2,1.6,1.4,2.6l0,0c-2.8-0.4-5.2,1-8,2.7L76.4,135.7z"/>
							</g>
						</g>
					</g>
				</g>
			</g>
		</g>
	</g>
	<g>
		<defs>
			
				<rect id="SVGID_00000080200274600358666430000009012422869260330894_" x="118.2" y="127.9" transform="matrix(0.3762 -0.9265 0.9265 0.3762 -51.4127 223.1396)" width="43.7" height="43.7"/>
		</defs>
		<clipPath id="SVGID_00000133497584053023541680000001392196384096560284_">
			<use xlink:href="#SVGID_00000080200274600358666430000009012422869260330894_"  style="overflow:visible;"/>
		</clipPath>
		<g style="clip-path:url(#SVGID_00000133497584053023541680000001392196384096560284_);">
			<g>
				<defs>
					
						<rect id="SVGID_00000155124499275142819240000013988245884011728778_" x="118.2" y="127.9" transform="matrix(0.3762 -0.9265 0.9265 0.3762 -51.4127 223.1396)" width="43.7" height="43.7"/>
				</defs>
				<clipPath id="SVGID_00000013903981628654621690000013677827220945922729_">
					<use xlink:href="#SVGID_00000155124499275142819240000013988245884011728778_"  style="overflow:visible;"/>
				</clipPath>
				<g style="clip-path:url(#SVGID_00000013903981628654621690000013677827220945922729_);">
					<g>
						<defs>
							
								<rect id="SVGID_00000008138758020047765650000006696987299355402887_" x="118.2" y="127.9" transform="matrix(0.3762 -0.9265 0.9265 0.3762 -51.4127 223.1396)" width="43.7" height="43.7"/>
						</defs>
						<clipPath id="SVGID_00000109744247977364718690000014982015779028175282_">
							<use xlink:href="#SVGID_00000008138758020047765650000006696987299355402887_"  style="overflow:visible;"/>
						</clipPath>
						<g style="clip-path:url(#SVGID_00000109744247977364718690000014982015779028175282_);">
							<g>
								<path d="M137.1,131.6c-4.4-1.4-8.8,0.3-9.9,3.8s1.5,7.4,5.9,8.8c4.4,1.4,8.8-0.3,9.9-3.8C144.1,136.9,141.5,133,137.1,131.6
									z M141.4,138c0.1,0.6,0.1,1.3,0,1.9c0,0,0,0.1,0,0.2c-1.8-1.3-4-1.2-6.3-1.2c-2,0-4.1,0-5.9-0.8c-0.2-0.7-0.2-1.4,0-2.1l0,0
									c1.6,1.2,3.6,1.1,5.9,1.1c2.1,0,4.4-0.1,6.5,1L141.4,138z"/>
								<path d="M149,142.5c-4.2,1.7-6.6,5.8-5.2,9.2c1.4,3.4,5.9,4.7,10.1,3c4.2-1.7,6.6-5.8,5.2-9.2
									C157.7,142.1,153.2,140.8,149,142.5z M157.4,146.2c0,0,0,0.1,0,0.2c-2.2,0.2-3.9,1.6-5.6,3.1c-1.5,1.3-3.1,2.7-5.1,3.2
									c-0.6-0.4-1.1-1-1.3-1.6l0,0c2,0,3.5-1.4,5.2-2.9c1.6-1.4,3.3-2.9,5.6-3.4c0.5,0.4,0.9,0.9,1.1,1.5L157.4,146.2z"/>
								<path d="M129.3,150.8c-3,2.1-3.2,6.8-0.6,10.6c2.6,3.7,7.2,5.1,10.2,3s3.2-6.8,0.6-10.6
									C136.9,150.1,132.3,148.7,129.3,150.8z M134.4,156.7c1.7,1.2,3.6,2.6,4.6,4.7c-0.3,0.6-0.7,1.1-1.2,1.4c0,0-0.1,0-0.2,0
									c-0.7-2.1-2.5-3.4-4.3-4.7c-1.7-1.2-3.3-2.4-4.2-4.2l0,0c0.3-0.7,0.7-1.3,1.3-1.7l0,0c0.5,1.9,2.2,3.1,4,4.4L134.4,156.7z"
									/>
							</g>
						</g>
					</g>
				</g>
			</g>
		</g>
	</g>
</g>
</svg>
