<?xml version="1.0" encoding="utf-8"?>
<!-- Generator: Adobe Illustrator 28.5.0, SVG Export Plug-In . SVG Version: 9.03 Build 54727)  -->
<svg version="1.1" id="Layer_1" xmlns="http://www.w3.org/2000/svg" xmlns:xlink="http://www.w3.org/1999/xlink" x="0px" y="0px"
	 viewBox="0 0 697.5 175.7" style="enable-background:new 0 0 697.5 175.7;" xml:space="preserve">
<style type="text/css">
	.st0{enable-background:new    ;}
	.st1{display:none;}
	.st2{display:inline;}
	.st3{clip-path:url(#SVGID_00000068639367799391644510000001039246040750088593_);}
	.st4{clip-path:url(#SVGID_00000155849053342709866510000001170332225389393295_);}
	.st5{clip-path:url(#SVGID_00000008861356082463288740000002283585782477767837_);}
	.st6{clip-path:url(#SVGID_00000154411213157617847790000010083569533565652389_);}
	.st7{clip-path:url(#SVGID_00000010293349902326796800000018384217630606708412_);}
	.st8{clip-path:url(#SVGID_00000155828120031198194620000017329729131262314165_);}
	.st9{clip-path:url(#SVGID_00000124163097923600598930000007766117196742461353_);}
	.st10{clip-path:url(#SVGID_00000154408259218881098340000012476509471472062655_);}
	.st11{clip-path:url(#SVGID_00000023998362852214258240000002383093449734255267_);}
	.st12{clip-path:url(#SVGID_00000077297800703588384070000009379114886094374813_);}
	.st13{clip-path:url(#SVGID_00000036253613946014717050000017629819911207452308_);}
	.st14{clip-path:url(#SVGID_00000178164136307428493680000008167354565268658075_);}
	.st15{clip-path:url(#SVGID_00000088107143524243114220000002208665398516957873_);}
	.st16{clip-path:url(#SVGID_00000136384789288914908410000000022332147048697245_);}
	.st17{clip-path:url(#SVGID_00000176041816320584203160000017568907522828364947_);}
	.st18{clip-path:url(#SVGID_00000170964820349994913050000005153827433703656083_);}
	.st19{clip-path:url(#SVGID_00000022525953258091138650000013125355642970062729_);}
	.st20{clip-path:url(#SVGID_00000087394562431786418720000014951195392079997592_);}
</style>
<g>
	<path d="M47.1,83.2c0-2.4-0.9-3.6-2.8-3.6h-1.7v7.5h1.9C46.3,87.1,47.1,85.8,47.1,83.2z"/>
	<path d="M44.2,88.8h-1.7v8.5h1.8c2.3,0,3.5-1.3,3.5-4S46.6,88.8,44.2,88.8z"/>
	<path d="M24.2,79.1c-1.2,0-2,0.6-2.4,1.9s-0.6,3.7-0.6,7.4s0.2,6.1,0.6,7.4s1.2,1.9,2.4,1.9s2-0.6,2.4-1.9s0.6-3.8,0.6-7.4
		S27,82.3,26.6,81S25.4,79.1,24.2,79.1z"/>
	<path d="M76.3,59.5v-8.6h-69V117c0,3.2,2.6,5.8,5.8,5.8h57.5c3.2,0,5.8-2.6,5.8-5.8v-13.7c11.6-0.6,20.8-10.2,20.8-22
		S88,60,76.3,59.5L76.3,59.5z M24.2,99.5c-6.3,0-9.5-3.8-9.5-11.3s3.2-10.8,9.6-10.8s9.3,3.7,9.3,11s-3.2,11-9.5,11L24.2,99.5z
		 M46.9,99.1H36.4V77.8h9.5c4.9,0,7.3,1.7,7.3,5.2s-1.5,4.1-4.4,4.8c3.5,0.7,5.3,2.6,5.3,5.7S51.7,99.2,46.9,99.1L46.9,99.1z
		 M66.2,91.2v7.9H60v-7.9l-5.7-13.4h6.4L65,88.1l3.9-10.3h2.5C71.4,77.8,66.2,91.2,66.2,91.2z M76.5,94.7V68.1
		c6.9,0.6,12.2,6.3,12.2,13.2S83.2,94.1,76.5,94.7z"/>
	<path d="M40.6,25.8c0,1.2-0.4,2.3-1.3,3c-1.2,1.2-1.2,2.9,0,4c0.6,0.6,1.3,0.9,2,0.9s1.4-0.3,2-0.9c1.9-1.9,3-4.5,3-7.2s-1-5.2-3-7
		c-1.7-1.7-1.7-4.5,0-6c1.2-1.1,1.2-2.9,0-4c-1.1-1.2-2.9-1.2-4,0c-4,3.9-4,10.3,0,14.2C40.2,23.7,40.6,24.7,40.6,25.8z"/>
	<path d="M54.9,37.2c-1.2,1.1-1.2,2.9,0,4c0.6,0.6,1.3,0.9,2,0.9s1.4-0.3,2-0.9c3.9-3.9,3.9-10.3,0-14.2c-0.9-0.9-1.3-1.9-1.3-3
		s0.4-2.3,1.3-3c1.2-1.2,1.2-2.9,0-4c-1.1-1.1-2.9-1.1-4,0c-1.9,1.9-3,4.5-3,7.2c0.1,2.7,1.2,5.2,3,7C56.6,32.9,56.6,35.7,54.9,37.2
		z"/>
	<path d="M26.2,34.2c0,1.1-0.4,2.3-1.3,3c-1.2,1.1-1.2,2.9,0,4c0.6,0.6,1.3,0.9,2,0.9s1.4-0.3,2-0.9c1.9-1.9,3-4.5,3-7.2
		s-1-5.2-3-7.2s-1.7-4.5,0-6c1.2-1.2,1.2-2.9,0-4s-2.9-1.1-4,0c-4,4.2-4,10.5,0,14.4C25.8,32.1,26.2,33.1,26.2,34.2z"/>
</g>
<g class="st0">
	<path d="M153.1,65c14,0,21,8.3,21,24.8s-7.1,24.8-21.3,24.8c-14.2,0-21.3-8.5-21.3-25.4C131.3,73.1,138.6,65,153.1,65z M152.7,68.8
		c-2.6,0-4.4,1.4-5.3,4.3c-0.9,2.9-1.4,8.4-1.4,16.6s0.5,13.8,1.4,16.6c0.9,2.9,2.7,4.3,5.3,4.3c2.6,0,4.4-1.4,5.3-4.3
		c0.9-2.9,1.4-8.4,1.4-16.6c0-8.2-0.5-13.7-1.4-16.6C157.1,70.3,155.3,68.8,152.7,68.8z"/>
	<path d="M205.1,91.2h-8.8c0.3-1.4,0.6-2.4,0.8-3.1c0.3-1,0.5-1.8,0.5-2.6c0-1.5-0.5-2.2-1.6-2.2c-0.8,0-1.6,1-2.4,3
		c-0.8,2-1.1,4.1-1.1,6.3v21.2h-12.8V78.4l2.5,0c3,0,6.4-0.3,10.3-0.9v5.8c2.1-3.9,4.6-5.8,7.7-5.8c4.1,0,6.2,2.3,6.2,6.8
		c0,1.2-0.2,2.6-0.6,4.1C205.6,89,205.4,90,205.1,91.2z"/>
	<path d="M242.2,65.1v48.7h-12.8v-3.1c-2.2,2.6-5,3.9-8.6,3.9c-8,0-12-6.1-12-18.4c0-12.6,4.2-18.9,12.7-18.9c3.3,0,6,1.5,7.9,4.4
		v-16C233.2,65.8,237.5,65.6,242.2,65.1z M225.5,82.5c-2.2,0-3.2,2-3.2,5.9L222,96l0.1,6.9c0,4.4,1.2,6.6,3.7,6.6
		c2.4,0,3.6-2.2,3.6-6.5l0.2-8.6l-0.3-5.9C228.9,84.5,227.7,82.5,225.5,82.5z"/>
	<path d="M274.5,100.8l5.2,1.5c-0.5,8.2-5.4,12.3-14.5,12.3c-11.8,0-17.7-5.9-17.7-17.7c0-5.7,1.6-10.4,4.7-14.1
		c3.1-3.7,7.2-5.5,12.1-5.5c10.2,0,15.4,6.6,15.4,19.8h-18.7c0,9.3,2.4,13.9,7.1,13.9c4.4,0,6.6-2.6,6.6-7.9
		C274.6,102.5,274.6,101.7,274.5,100.8z M260.9,93.2h7.7c0-8.2-1.2-12.4-3.7-12.4c-2.2,0-3.5,3.1-3.8,9.2L260.9,93.2z"/>
	<path d="M310.6,91.2h-8.8c0.3-1.4,0.6-2.4,0.8-3.1c0.3-1,0.5-1.8,0.5-2.6c0-1.5-0.5-2.2-1.6-2.2c-0.8,0-1.6,1-2.4,3
		c-0.8,2-1.1,4.1-1.1,6.3v21.2h-12.8V78.4l2.5,0c3,0,6.4-0.3,10.3-0.9v5.8c2.1-3.9,4.6-5.8,7.7-5.8c4.1,0,6.2,2.3,6.2,6.8
		c0,1.2-0.2,2.6-0.6,4.1C311.1,89,310.9,90,310.6,91.2z"/>
	<path d="M338.1,113.8v-48h21.3c11,0,16.5,3.9,16.5,11.8c0,5.6-3.3,9.2-9.9,10.7c8,1.6,12,5.8,12,12.7c0,8.5-5.4,12.8-16.1,12.8
		H338.1z M352,86.7h4.3c4,0,5.9-2.9,5.9-8.8c0-5.4-2.1-8.1-6.3-8.1H352V86.7z M352,109.8h4c5.2,0,7.8-3,7.8-8.9
		c0-6.8-2.7-10.2-8.1-10.2H352V109.8z"/>
	<path d="M412.5,78.4l-16.2,40c-2.2,5.5-5.2,8.2-9,8.2c-3.7,0-6.1-1.6-7.5-4.7l4.4-3.2c0.4,2.7,1.3,4,3,4c1.9,0,3.4-1.6,4.5-4.7
		l0.9-2.5l-14.3-37.2h14.1l7.1,20.8l8.1-20.8H412.5z"/>
	<path d="M470.9,65.8l-11.7,30.3v17.7h-13.9V96.1l-12.9-30.3h14.4l9.8,23.1l8.8-23.1H470.9z"/>
	<path d="M489.4,77.4c11.7,0,17.6,6.2,17.6,18.6s-5.9,18.6-17.6,18.6c-11.7,0-17.6-6.2-17.6-18.6S477.7,77.4,489.4,77.4z
		 M489.4,80.6c-2.8,0-4.3,5.1-4.3,15.4s1.4,15.4,4.3,15.4c2.9,0,4.3-5.1,4.3-15.4S492.3,80.6,489.4,80.6z"/>
	<path d="M546.1,77.4v36.4h-12.8v-5.7c-3,4.2-6.8,6.3-11.4,6.3c-6.3,0-9.4-3-9.4-9.1v-27c4.3-0.2,8.6-0.5,12.8-0.9V105
		c0,2.4,0.7,3.6,2.2,3.6c3.8,0,5.8-4.1,5.8-12.4V78.4C537.6,78.2,541.8,77.9,546.1,77.4z"/>
	<path d="M578.8,91.2H570c0.3-1.4,0.6-2.4,0.8-3.1c0.3-1,0.5-1.8,0.5-2.6c0-1.5-0.5-2.2-1.6-2.2c-0.8,0-1.6,1-2.4,3
		s-1.1,4.1-1.1,6.3v21.2h-12.8V78.4l2.5,0c3,0,6.4-0.3,10.3-0.9v5.8c2.1-3.9,4.6-5.8,7.7-5.8c4.1,0,6.2,2.3,6.2,6.8
		c0,1.2-0.2,2.6-0.6,4.1C579.3,89,579.1,90,578.8,91.2z"/>
	<path d="M611.8,87.5l-6.2,1.1c0-5.3-2.5-7.9-7.4-7.9c-3,0-4.5,1.2-4.5,3.7c0,1.8,2.6,3.8,7.8,5.9c8,3.3,12,7.4,12,12.4
		c0,8-5.1,12-15.2,12c-10.7,0-16.1-4-16.1-12l6.6-1.3c-0.1,0.8-0.1,1.5-0.1,2.2c0,2.1,0.9,3.9,2.6,5.4s3.8,2.3,6.1,2.3
		c3.1,0,4.6-1.3,4.6-3.9c0-1.8-2.5-3.7-7.5-5.8c-7.5-3.2-11.3-7.4-11.3-12.4c0-3.4,1.4-6.1,4.3-8.2s6.6-3.2,11.1-3.2
		C606.6,77.5,611,80.8,611.8,87.5z"/>
	<path d="M643.8,100.8l5.2,1.5c-0.5,8.2-5.4,12.3-14.5,12.3c-11.8,0-17.7-5.9-17.7-17.7c0-5.7,1.6-10.4,4.7-14.1s7.2-5.5,12.1-5.5
		c10.2,0,15.4,6.6,15.4,19.8h-18.7c0,9.3,2.4,13.9,7.1,13.9c4.4,0,6.6-2.6,6.6-7.9C643.9,102.5,643.9,101.7,643.8,100.8z
		 M630.2,93.2h7.7c0-8.2-1.2-12.4-3.7-12.4c-2.2,0-3.5,3.1-3.8,9.2L630.2,93.2z"/>
	<path d="M667.2,65.1v48.7h-12.8v-48C657.9,65.8,662.1,65.6,667.2,65.1z"/>
	<path d="M692.7,78.4v4h-5.1v31.5h-12.8V82.3h-4.5v-4h4.5v-3.2c0-2.9,1-5.3,3.1-7.2s4.6-2.9,7.7-2.9c6.2,0,9.3,2.3,9.3,7
		c0,0.4,0,0.8,0,1.3l-6.1,2.1c0.3-1.2,0.5-2.2,0.5-2.9c0-2.5-0.9-3.7-2.6-3.7c-1.5,0-2.2,1.1-2.2,3.3c0,1.3,1.1,3.4,3.2,6.2H692.7z"
		/>
</g>
<g class="st1">
	<g class="st2">
		<defs>
			
				<rect id="SVGID_1_" x="715.6" y="-1.2" transform="matrix(0.9018 -0.4321 0.4321 0.9018 58.8373 328.0458)" width="71.5" height="71.5"/>
		</defs>
		<clipPath id="SVGID_00000079469570727880777470000005316901515590207631_">
			<use xlink:href="#SVGID_1_"  style="overflow:visible;"/>
		</clipPath>
		<g style="clip-path:url(#SVGID_00000079469570727880777470000005316901515590207631_);">
			<g>
				<defs>
					
						<rect id="SVGID_00000057857397092997402670000017848032600676501416_" x="715.6" y="-1.2" transform="matrix(0.9018 -0.4321 0.4321 0.9018 58.8373 328.0458)" width="71.5" height="71.5"/>
				</defs>
				<clipPath id="SVGID_00000034775598270680942260000018182793839356112062_">
					<use xlink:href="#SVGID_00000057857397092997402670000017848032600676501416_"  style="overflow:visible;"/>
				</clipPath>
				<g style="clip-path:url(#SVGID_00000034775598270680942260000018182793839356112062_);">
					<g>
						<defs>
							
								<rect id="SVGID_00000141441464922651573420000013917873104996957107_" x="715.6" y="-1.2" transform="matrix(0.9018 -0.4321 0.4321 0.9018 58.8373 328.0458)" width="71.5" height="71.5"/>
						</defs>
						<clipPath id="SVGID_00000074436339731680633030000001565606516884292253_">
							<use xlink:href="#SVGID_00000141441464922651573420000013917873104996957107_"  style="overflow:visible;"/>
						</clipPath>
						<g style="clip-path:url(#SVGID_00000074436339731680633030000001565606516884292253_);">
							<g>
								<path d="M734.4,59.5c3.7,6.5,10.9,9.3,16.1,6.3c5.1-3,6.3-10.6,2.5-17.1c-3.7-6.5-10.9-9.3-16.1-6.3
									C731.8,45.4,730.6,53,734.4,59.5z M736.3,47.1c0.5-0.9,1.3-1.6,2.2-2.2c0,0,0.2,0,0.3-0.1c0.8,3.6,3.5,5.9,6.4,8.4
									c2.5,2.2,5.1,4.4,6.3,7.5c-0.5,1.1-1.3,1.9-2.3,2.5l0,0c-0.5-3.2-3-5.3-5.8-7.8c-2.6-2.3-5.5-4.7-6.8-8.3H736.3z"/>
								<path d="M732.1,33.2c7,2.6,14.3,0.2,16.4-5.4c2.1-5.6-1.9-12.2-8.9-14.8s-14.3-0.2-16.4,5.4S725.1,30.6,732.1,33.2z
									 M726,19.5c0,0,0-0.2,0.1-0.3c2.9,2.2,6.5,2.3,10.2,2.4c3.3,0,6.7,0.2,9.6,1.8c0.3,1.1,0.2,2.3-0.2,3.5l0,0
									c-2.4-2.1-5.7-2.2-9.5-2.3c-3.4,0-7.2-0.2-10.6-2.1c-0.2-1,0-2.1,0.3-3H726z"/>
								<path d="M765,44.8c5.9,0.7,11.4-4.7,12.3-12.1c0.9-7.4-3.1-14-9-14.7s-11.4,4.7-12.3,12.1C755.1,37.5,759.1,44.1,765,44.8z
									 M765.4,32.1c-0.7-3.4-1.5-7.1-0.4-10.7c0.9-0.4,2-0.6,3-0.4c0,0,0.2,0,0.3,0c-1.5,3.3-0.7,6.8,0,10.5
									c0.7,3.2,1.4,6.6,0.5,9.8l0,0c-1,0.5-2.2,0.7-3.4,0.6l0,0C766.9,39,766.2,35.8,765.4,32.1L765.4,32.1z"/>
							</g>
						</g>
					</g>
				</g>
			</g>
		</g>
	</g>
	<g class="st2">
		<defs>
			
				<rect id="SVGID_00000078729997678446302230000012485446292404512655_" x="667.1" y="-1.2" transform="matrix(0.7157 -0.6984 0.6984 0.7157 177.6049 496.1602)" width="62.2" height="62.2"/>
		</defs>
		<clipPath id="SVGID_00000134971469873442408700000006896962749339945106_">
			<use xlink:href="#SVGID_00000078729997678446302230000012485446292404512655_"  style="overflow:visible;"/>
		</clipPath>
		<g style="clip-path:url(#SVGID_00000134971469873442408700000006896962749339945106_);">
			<g>
				<defs>
					
						<rect id="SVGID_00000075164128471986421770000000729120646017319311_" x="667.1" y="-1.2" transform="matrix(0.7157 -0.6984 0.6984 0.7157 177.6049 496.1602)" width="62.2" height="62.2"/>
				</defs>
				<clipPath id="SVGID_00000044166293871716964890000013244592528342561438_">
					<use xlink:href="#SVGID_00000075164128471986421770000000729120646017319311_"  style="overflow:visible;"/>
				</clipPath>
				<g style="clip-path:url(#SVGID_00000044166293871716964890000013244592528342561438_);">
					<g>
						<defs>
							
								<rect id="SVGID_00000128445278516964182490000012600492688574617752_" x="667.1" y="-1.2" transform="matrix(0.7157 -0.6984 0.6984 0.7157 177.6049 496.1602)" width="62.2" height="62.2"/>
						</defs>
						<clipPath id="SVGID_00000097497366915108172430000008424502387783483037_">
							<use xlink:href="#SVGID_00000128445278516964182490000012600492688574617752_"  style="overflow:visible;"/>
						</clipPath>
						<g style="clip-path:url(#SVGID_00000097497366915108172430000008424502387783483037_);">
							<g>
								<path d="M672.3,22.9c-4.3,4.9-4.6,11.6-0.7,15c3.9,3.4,10.5,2.2,14.8-2.7s4.6-11.6,0.7-15C683.2,16.8,676.6,18,672.3,22.9z
									 M683,21c0.9,0.2,1.7,0.6,2.4,1.2c0,0,0.1,0.1,0.2,0.2c-2.7,1.7-3.9,4.6-5.1,7.6c-1.1,2.7-2.2,5.4-4.4,7.2
									c-1-0.1-2-0.6-2.7-1.2l0,0c2.5-1.4,3.6-4,4.8-7c1.1-2.8,2.4-5.8,5-7.9L683,21z"/>
								<path d="M693.3,13.7c-0.2,6.5,3.9,11.9,9,12c5.2,0.1,9.5-5,9.7-11.5s-3.9-11.9-9-12C697.8,2.1,693.5,7.2,693.3,13.7z
									 M702.9,4.8c0,0,0.2,0,0.3,0c-1,3,0,6,0.9,9.1c0.9,2.8,1.7,5.6,1.2,8.4c-0.9,0.5-1.9,0.8-2.9,0.8l0,0
									c1.1-2.6,0.2-5.3-0.8-8.4c-0.9-2.9-1.9-6-1.3-9.3C701.1,5,702,4.8,702.9,4.8z"/>
								<path d="M692.9,44.1c1,5.1,7,8.1,13.4,6.8s10.7-6.5,9.6-11.5c-1-5.1-7-8.1-13.4-6.8C696.1,33.9,691.8,39.1,692.9,44.1z
									 M703.5,40.8c2.6-1.5,5.4-3.2,8.7-3.3c0.6,0.7,1,1.5,1.2,2.4v0.2c-3.2-0.3-5.8,1.3-8.7,3c-2.5,1.5-5,3-7.9,3.1l0,0
									c-0.7-0.7-1.2-1.6-1.4-2.6l0,0c2.8,0.4,5.2-1,8-2.7L703.5,40.8z"/>
							</g>
						</g>
					</g>
				</g>
			</g>
		</g>
	</g>
	<g class="st2">
		<defs>
			
				<rect id="SVGID_00000102519127731517961500000012873257125219571125_" x="618.5" y="4.9" transform="matrix(0.3762 -0.9265 0.9265 0.3762 374.6761 609.9501)" width="43.7" height="43.7"/>
		</defs>
		<clipPath id="SVGID_00000159470417026378649030000014184229316929596349_">
			<use xlink:href="#SVGID_00000102519127731517961500000012873257125219571125_"  style="overflow:visible;"/>
		</clipPath>
		<g style="clip-path:url(#SVGID_00000159470417026378649030000014184229316929596349_);">
			<g>
				<defs>
					
						<rect id="SVGID_00000127005022973506074740000010095868348346833024_" x="618.5" y="4.9" transform="matrix(0.3762 -0.9265 0.9265 0.3762 374.6761 609.9501)" width="43.7" height="43.7"/>
				</defs>
				<clipPath id="SVGID_00000047054641652255735850000000591670849960398728_">
					<use xlink:href="#SVGID_00000127005022973506074740000010095868348346833024_"  style="overflow:visible;"/>
				</clipPath>
				<g style="clip-path:url(#SVGID_00000047054641652255735850000000591670849960398728_);">
					<g>
						<defs>
							
								<rect id="SVGID_00000182504245529565378440000000519159375770382241_" x="618.5" y="4.9" transform="matrix(0.3762 -0.9265 0.9265 0.3762 374.6761 609.95)" width="43.7" height="43.7"/>
						</defs>
						<clipPath id="SVGID_00000014596791293916697830000011340280227310514304_">
							<use xlink:href="#SVGID_00000182504245529565378440000000519159375770382241_"  style="overflow:visible;"/>
						</clipPath>
						<g style="clip-path:url(#SVGID_00000014596791293916697830000011340280227310514304_);">
							<g>
								<path d="M642.8,44.9c4.4,1.4,8.8-0.3,9.9-3.8c1.1-3.5-1.5-7.4-5.9-8.8c-4.4-1.4-8.8,0.3-9.9,3.8
									C635.8,39.6,638.4,43.5,642.8,44.9z M638.5,38.5c-0.1-0.6-0.1-1.3,0-1.9c0,0,0-0.1,0-0.2c1.8,1.3,4,1.2,6.3,1.2
									c2,0,4.1,0,5.9,0.8c0.2,0.7,0.2,1.4,0,2.1l0,0c-1.6-1.2-3.6-1.1-5.9-1.1c-2.1,0-4.4,0.1-6.5-1L638.5,38.5z"/>
								<path d="M630.9,33.9c4.2-1.7,6.6-5.8,5.2-9.2c-1.4-3.4-5.9-4.7-10.1-3c-4.2,1.7-6.6,5.8-5.2,9.2
									C622.2,34.3,626.7,35.6,630.9,33.9z M622.5,30.3c0,0,0-0.1,0-0.2c2.2-0.2,3.9-1.6,5.6-3.1c1.5-1.3,3.1-2.7,5.1-3.2
									c0.6,0.4,1.1,1,1.3,1.6l0,0c-2,0-3.5,1.4-5.2,2.9c-1.6,1.4-3.3,2.9-5.6,3.4c-0.5-0.4-0.9-0.9-1.1-1.5L622.5,30.3z"/>
								<path d="M650.6,25.6c3-2.1,3.2-6.8,0.6-10.6c-2.6-3.7-7.2-5.1-10.2-3s-3.2,6.8-0.6,10.6C643,26.3,647.6,27.7,650.6,25.6z
									 M645.5,19.7c-1.7-1.2-3.6-2.6-4.6-4.7c0.3-0.6,0.7-1.1,1.2-1.4c0,0,0.1,0,0.2,0c0.7,2.1,2.5,3.4,4.3,4.7
									c1.7,1.2,3.3,2.4,4.2,4.2l0,0c-0.3,0.7-0.7,1.3-1.3,1.7l0,0c-0.5-1.9-2.2-3.1-4-4.4L645.5,19.7z"/>
							</g>
						</g>
					</g>
				</g>
			</g>
		</g>
	</g>
</g>
<g class="st1">
	<g class="st2">
		<defs>
			
				<rect id="SVGID_00000136382626463177979230000017375038804413453960_" x="-112.7" y="106.6" transform="matrix(0.9018 -0.4321 0.4321 0.9018 -69.0685 -19.2557)" width="71.5" height="71.5"/>
		</defs>
		<clipPath id="SVGID_00000054243419087120794960000015390296560331474583_">
			<use xlink:href="#SVGID_00000136382626463177979230000017375038804413453960_"  style="overflow:visible;"/>
		</clipPath>
		<g style="clip-path:url(#SVGID_00000054243419087120794960000015390296560331474583_);">
			<g>
				<defs>
					
						<rect id="SVGID_00000106114175141509890160000017543141038808662668_" x="-112.7" y="106.6" transform="matrix(0.9018 -0.4321 0.4321 0.9018 -69.0685 -19.2557)" width="71.5" height="71.5"/>
				</defs>
				<clipPath id="SVGID_00000108302734474175812220000015451397375336734087_">
					<use xlink:href="#SVGID_00000106114175141509890160000017543141038808662668_"  style="overflow:visible;"/>
				</clipPath>
				<g style="clip-path:url(#SVGID_00000108302734474175812220000015451397375336734087_);">
					<g>
						<defs>
							
								<rect id="SVGID_00000150063027968400636660000000773599922826311577_" x="-112.7" y="106.6" transform="matrix(0.9018 -0.4321 0.4321 0.9018 -69.0685 -19.2557)" width="71.5" height="71.5"/>
						</defs>
						<clipPath id="SVGID_00000081649409822284281540000012386499707150115491_">
							<use xlink:href="#SVGID_00000150063027968400636660000000773599922826311577_"  style="overflow:visible;"/>
						</clipPath>
						<g style="clip-path:url(#SVGID_00000081649409822284281540000012386499707150115491_);">
							<g>
								<path d="M-60.2,117c-3.7-6.5-10.9-9.3-16.1-6.3c-5.1,3-6.3,10.6-2.5,17.1c3.7,6.5,10.9,9.3,16.1,6.3
									C-57.6,131.1-56.4,123.5-60.2,117z M-62.1,129.4c-0.5,0.9-1.3,1.6-2.2,2.2c0,0-0.2,0-0.3,0.1c-0.8-3.6-3.5-5.9-6.4-8.4
									c-2.5-2.2-5.1-4.4-6.3-7.5c0.5-1.1,1.3-1.9,2.3-2.5l0,0c0.5,3.2,3,5.3,5.8,7.8c2.6,2.3,5.5,4.7,6.8,8.3H-62.1z"/>
								<path d="M-57.9,143.2c-7-2.6-14.3-0.2-16.4,5.4c-2.1,5.6,1.9,12.2,8.9,14.8s14.3,0.2,16.4-5.4S-50.9,145.8-57.9,143.2z
									 M-51.8,157c0,0,0,0.2-0.1,0.3c-2.9-2.2-6.5-2.3-10.2-2.4c-3.3,0-6.7-0.2-9.6-1.8c-0.3-1.1-0.2-2.3,0.2-3.5l0,0
									c2.4,2.1,5.7,2.2,9.5,2.3c3.4,0,7.2,0.2,10.6,2.1C-51.2,155-51.4,156.1-51.8,157L-51.8,157z"/>
								<path d="M-90.8,131.6c-5.9-0.7-11.4,4.7-12.3,12.1c-0.9,7.4,3.1,14,9,14.7s11.4-4.7,12.3-12.1
									C-80.9,138.9-84.9,132.3-90.8,131.6z M-91.2,144.3c0.7,3.4,1.5,7.1,0.4,10.7c-0.9,0.4-2,0.6-3,0.4c0,0-0.2,0-0.3,0
									c1.5-3.3,0.7-6.8,0-10.5c-0.7-3.2-1.4-6.6-0.5-9.8l0,0c1-0.5,2.2-0.7,3.4-0.6l0,0c-1.5,2.9-0.8,6.1,0,9.7V144.3z"/>
							</g>
						</g>
					</g>
				</g>
			</g>
		</g>
	</g>
	<g class="st2">
		<defs>
			
				<rect id="SVGID_00000011028868977418004730000008746099447436638351_" x="-54.7" y="115.6" transform="matrix(0.7157 -0.6984 0.6984 0.7157 -109.1859 25.2042)" width="62.2" height="62.2"/>
		</defs>
		<clipPath id="SVGID_00000018199815877863939560000001724279785892663209_">
			<use xlink:href="#SVGID_00000011028868977418004730000008746099447436638351_"  style="overflow:visible;"/>
		</clipPath>
		<g style="clip-path:url(#SVGID_00000018199815877863939560000001724279785892663209_);">
			<g>
				<defs>
					
						<rect id="SVGID_00000106857804535532831610000015617108522915703482_" x="-54.7" y="115.6" transform="matrix(0.7157 -0.6984 0.6984 0.7157 -109.1859 25.2042)" width="62.2" height="62.2"/>
				</defs>
				<clipPath id="SVGID_00000170979059956750588450000011349032782695422085_">
					<use xlink:href="#SVGID_00000106857804535532831610000015617108522915703482_"  style="overflow:visible;"/>
				</clipPath>
				<g style="clip-path:url(#SVGID_00000170979059956750588450000011349032782695422085_);">
					<g>
						<defs>
							
								<rect id="SVGID_00000149360851892428848130000002468680802757509045_" x="-54.7" y="115.6" transform="matrix(0.7157 -0.6984 0.6984 0.7157 -109.1859 25.2042)" width="62.2" height="62.2"/>
						</defs>
						<clipPath id="SVGID_00000003821392446158818760000009579055607960239806_">
							<use xlink:href="#SVGID_00000149360851892428848130000002468680802757509045_"  style="overflow:visible;"/>
						</clipPath>
						<g style="clip-path:url(#SVGID_00000003821392446158818760000009579055607960239806_);">
							<g>
								<path d="M1.9,153.6c4.3-4.9,4.6-11.6,0.7-15s-10.5-2.2-14.8,2.7s-4.6,11.6-0.7,15S-2.4,158.5,1.9,153.6z M-8.8,155.5
									c-0.9-0.2-1.7-0.6-2.4-1.2c0,0-0.1-0.1-0.2-0.2c2.7-1.7,3.9-4.6,5.1-7.6c1.1-2.7,2.2-5.4,4.4-7.2c1,0.1,2,0.6,2.7,1.2l0,0
									c-2.5,1.4-3.6,4-4.8,7c-1.1,2.8-2.4,5.8-5,7.9L-8.8,155.5z"/>
								<path d="M-19.1,162.8c0.2-6.5-3.9-11.9-9-12c-5.2-0.1-9.5,5-9.7,11.5s3.9,11.9,9,12C-23.6,174.4-19.3,169.3-19.1,162.8z
									 M-28.7,171.7c0,0-0.2,0-0.3,0c1-3,0-6-0.9-9.1c-0.9-2.8-1.7-5.6-1.2-8.4c0.9-0.5,1.9-0.8,2.9-0.8l0,0
									c-1.1,2.6-0.2,5.3,0.8,8.4c0.9,2.9,1.9,6,1.3,9.3C-26.9,171.5-27.8,171.7-28.7,171.7z"/>
								<path d="M-18.7,132.4c-1-5.1-7-8.1-13.4-6.8c-6.4,1.3-10.7,6.5-9.6,11.5c1,5.1,7,8.1,13.4,6.8S-17.6,137.4-18.7,132.4z
									 M-29.3,135.7c-2.6,1.5-5.4,3.2-8.7,3.3c-0.6-0.7-1-1.5-1.2-2.4v-0.2c3.2,0.3,5.8-1.3,8.7-3c2.5-1.5,5-3,7.9-3.1l0,0
									c0.7,0.7,1.2,1.6,1.4,2.6l0,0C-24,132.5-26.4,133.9-29.3,135.7L-29.3,135.7z"/>
							</g>
						</g>
					</g>
				</g>
			</g>
		</g>
	</g>
	<g class="st2">
		<defs>
			
				<rect id="SVGID_00000074410948064937562230000011639238104650354592_" x="12.5" y="128" transform="matrix(0.3762 -0.9265 0.9265 0.3762 -117.3651 125.3086)" width="43.7" height="43.7"/>
		</defs>
		<clipPath id="SVGID_00000028294472857771007520000018073017944529110428_">
			<use xlink:href="#SVGID_00000074410948064937562230000011639238104650354592_"  style="overflow:visible;"/>
		</clipPath>
		<g style="clip-path:url(#SVGID_00000028294472857771007520000018073017944529110428_);">
			<g>
				<defs>
					
						<rect id="SVGID_00000050661094355578752180000004552636039037150109_" x="12.5" y="128" transform="matrix(0.3762 -0.9265 0.9265 0.3762 -117.3651 125.3086)" width="43.7" height="43.7"/>
				</defs>
				<clipPath id="SVGID_00000175289015844684170760000010226035515960158345_">
					<use xlink:href="#SVGID_00000050661094355578752180000004552636039037150109_"  style="overflow:visible;"/>
				</clipPath>
				<g style="clip-path:url(#SVGID_00000175289015844684170760000010226035515960158345_);">
					<g>
						<defs>
							
								<rect id="SVGID_00000178181952498897539470000008286192305300498844_" x="12.5" y="128" transform="matrix(0.3762 -0.9265 0.9265 0.3762 -117.3651 125.3087)" width="43.7" height="43.7"/>
						</defs>
						<clipPath id="SVGID_00000162338637023961510470000015143829921925129347_">
							<use xlink:href="#SVGID_00000178181952498897539470000008286192305300498844_"  style="overflow:visible;"/>
						</clipPath>
						<g style="clip-path:url(#SVGID_00000162338637023961510470000015143829921925129347_);">
							<g>
								<path d="M31.4,131.6c-4.4-1.4-8.8,0.3-9.9,3.8c-1.1,3.5,1.5,7.4,5.9,8.8c4.4,1.4,8.8-0.3,9.9-3.8S35.8,133,31.4,131.6z
									 M35.7,138c0.1,0.6,0.1,1.3,0,1.9c0,0,0,0.1,0,0.2c-1.8-1.3-4-1.2-6.3-1.2c-2,0-4.1,0-5.9-0.8c-0.2-0.7-0.2-1.4,0-2.1l0,0
									c1.6,1.2,3.6,1.1,5.9,1.1c2.1,0,4.4-0.1,6.5,1L35.7,138z"/>
								<path d="M43.3,142.5c-4.2,1.7-6.6,5.8-5.2,9.2c1.4,3.4,5.9,4.7,10.1,3s6.6-5.8,5.2-9.2C52,142.1,47.5,140.8,43.3,142.5z
									 M51.7,146.2c0,0,0,0.1,0,0.2c-2.2,0.2-3.9,1.6-5.6,3.1c-1.5,1.3-3.1,2.7-5.1,3.2c-0.6-0.4-1.1-1-1.3-1.6l0,0
									c2,0,3.5-1.4,5.2-2.9c1.6-1.4,3.3-2.9,5.6-3.4c0.5,0.4,0.9,0.9,1.1,1.5L51.7,146.2z"/>
								<path d="M23.6,150.8c-3,2.1-3.2,6.8-0.6,10.6c2.6,3.7,7.2,5.1,10.2,3s3.2-6.8,0.6-10.6C31.2,150.1,26.6,148.7,23.6,150.8z
									 M28.7,156.7c1.7,1.2,3.6,2.6,4.6,4.7c-0.3,0.6-0.7,1.1-1.2,1.4c0,0-0.1,0-0.2,0c-0.7-2.1-2.5-3.4-4.3-4.7
									c-1.7-1.2-3.3-2.4-4.2-4.2l0,0c0.3-0.7,0.7-1.3,1.3-1.7l0,0c0.5,1.9,2.2,3.1,4,4.4L28.7,156.7z"/>
							</g>
						</g>
					</g>
				</g>
			</g>
		</g>
	</g>
</g>
</svg>
