<?xml version="1.0" encoding="utf-8"?>
<!-- Generator: Adobe Illustrator 28.5.0, SVG Export Plug-In . SVG Version: 9.03 Build 54727)  -->
<svg version="1.1" id="Layer_1" xmlns="http://www.w3.org/2000/svg" xmlns:xlink="http://www.w3.org/1999/xlink" x="0px" y="0px"
	 viewBox="0 0 565.6 78" style="enable-background:new 0 0 565.6 78;" xml:space="preserve">
<style type="text/css">
	.st0{display:none;}
	.st1{display:inline;}
	.st2{enable-background:new    ;}
	.st3{clip-path:url(#SVGID_00000048464586490872458330000002081094894800393609_);}
	.st4{clip-path:url(#SVGID_00000125588974419182477370000007177488348472476034_);}
	.st5{clip-path:url(#SVGID_00000036222209694772569590000007220495652441177252_);}
	.st6{clip-path:url(#SVGID_00000101816088462719323150000011043563264685595306_);}
	.st7{clip-path:url(#SVGID_00000059297905010419089210000000306288415876303267_);}
	.st8{clip-path:url(#SVGID_00000096030795637821486760000001740636715002664091_);}
	.st9{clip-path:url(#SVGID_00000061438491776537268470000005100423333986617788_);}
	.st10{clip-path:url(#SVGID_00000103971523611883699450000005211202413437493637_);}
	.st11{clip-path:url(#SVGID_00000162318103781454545110000000796965860315924409_);}
	.st12{clip-path:url(#SVGID_00000078009307496061641960000011488410338612234669_);}
	.st13{clip-path:url(#SVGID_00000072978558310352315220000009644699717661747853_);}
	.st14{clip-path:url(#SVGID_00000054984528174899634230000003451867638244998838_);}
	.st15{clip-path:url(#SVGID_00000156548927007020798880000007134928063794482586_);}
	.st16{clip-path:url(#SVGID_00000124132406646553632410000011970505176970971040_);}
	.st17{clip-path:url(#SVGID_00000137128055382061113720000010207200090838868873_);}
	.st18{clip-path:url(#SVGID_00000052798131393262010430000016060236963003700633_);}
	.st19{clip-path:url(#SVGID_00000008861743374604008570000003615192700825525405_);}
	.st20{clip-path:url(#SVGID_00000003067711645456752920000005114622942605219462_);}
</style>
<g class="st0">
	<path class="st1" d="M-84,36.3c0-2.4-0.9-3.6-2.8-3.6h-1.7v7.5h1.9C-84.8,40.2-84,38.9-84,36.3z"/>
	<path class="st1" d="M-86.9,42h-1.7v8.5h1.8c2.3,0,3.5-1.3,3.5-4S-84.5,42-86.9,42z"/>
	<path class="st1" d="M-107,32.3c-1.2,0-2,0.6-2.4,1.9c-0.4,1.3-0.6,3.7-0.6,7.4s0.2,6.1,0.6,7.4c0.4,1.3,1.2,1.9,2.4,1.9
		s2-0.6,2.4-1.9c0.4-1.3,0.6-3.8,0.6-7.4s-0.2-6.1-0.6-7.4C-105,32.9-105.8,32.3-107,32.3z"/>
	<path class="st1" d="M-54.8,12.6V4h-69v66.1c0,3.2,2.6,5.8,5.8,5.8h57.5c3.2,0,5.8-2.6,5.8-5.8V56.4c11.6-0.6,20.8-10.2,20.8-22
		S-43.1,13.1-54.8,12.6L-54.8,12.6z M-107,52.6c-6.3,0-9.5-3.8-9.5-11.3s3.2-10.8,9.6-10.8s9.3,3.7,9.3,11S-100.8,52.5-107,52.6
		L-107,52.6z M-84.2,52.3h-10.5V31h9.5c4.9,0,7.3,1.7,7.3,5.2s-1.5,4.1-4.4,4.8c3.5,0.7,5.3,2.6,5.3,5.7s-2.4,5.7-7.2,5.7
		L-84.2,52.3z M-65,44.4v7.9h-6.2v-7.9L-76.9,31h6.4l4.3,10.3l3.9-10.3h2.5L-65,44.4L-65,44.4z M-54.6,47.8V21.2
		c6.9,0.6,12.2,6.3,12.2,13.2S-47.9,47.2-54.6,47.8z"/>
	<path class="st1" d="M-90.6-21c0,1.2-0.4,2.3-1.3,3c-1.2,1.2-1.2,2.9,0,4c0.6,0.6,1.3,0.9,2,0.9s1.4-0.3,2-0.9c1.9-1.9,3-4.5,3-7.2
		s-1-5.2-3-7c-1.7-1.7-1.7-4.5,0-6c1.2-1.1,1.2-2.9,0-4c-1.1-1.2-2.9-1.2-4,0c-4,3.9-4,10.3,0,14.2C-91-23.1-90.6-22.1-90.6-21z"/>
	<path class="st1" d="M-76.2-9.7c-1.2,1.1-1.2,2.9,0,4c0.6,0.6,1.3,0.9,2,0.9s1.4-0.3,2-0.9c3.9-3.9,3.9-10.3,0-14.2
		c-0.9-0.9-1.3-1.9-1.3-3s0.4-2.3,1.3-3c1.2-1.2,1.2-2.9,0-4c-1.1-1.1-2.9-1.1-4,0c-1.9,1.9-3,4.5-3,7.2c0.1,2.7,1.2,5.2,3,7
		C-74.5-14-74.5-11.2-76.2-9.7z"/>
	<path class="st1" d="M-104.9-12.7c0,1.1-0.4,2.3-1.3,3c-1.2,1.1-1.2,2.9,0,4c0.6,0.6,1.3,0.9,2,0.9s1.4-0.3,2-0.9
		c1.9-1.9,3-4.5,3-7.2s-1-5.2-3-7.2s-1.7-4.5,0-6c1.2-1.2,1.2-2.9,0-4s-2.9-1.1-4,0c-4,4.2-4,10.5,0,14.4
		C-105.3-14.8-104.9-13.8-104.9-12.7z"/>
</g>
<g class="st2">
	<path d="M23.8,11.2c14,0,21,8.3,21,24.8s-7.1,24.8-21.3,24.8C9.2,60.8,2,52.3,2,35.4C2,19.3,9.3,11.2,23.8,11.2z M23.4,15
		c-2.6,0-4.4,1.4-5.3,4.3c-0.9,2.9-1.4,8.4-1.4,16.6s0.5,13.8,1.4,16.6c0.9,2.9,2.7,4.3,5.3,4.3c2.6,0,4.4-1.4,5.3-4.3
		c0.9-2.9,1.4-8.4,1.4-16.6c0-8.2-0.5-13.7-1.4-16.6C27.8,16.5,26,15,23.4,15z"/>
	<path d="M75.8,37.4H67c0.3-1.4,0.6-2.4,0.8-3.1c0.3-1,0.5-1.8,0.5-2.6c0-1.5-0.5-2.2-1.6-2.2c-0.8,0-1.6,1-2.4,3
		c-0.8,2-1.1,4.1-1.1,6.3V60H50.3V24.6l2.5,0c3,0,6.4-0.3,10.3-0.9v5.8c2.1-3.9,4.6-5.8,7.7-5.8c4.1,0,6.2,2.3,6.2,6.8
		c0,1.2-0.2,2.6-0.6,4.1C76.3,35.2,76.1,36.2,75.8,37.4z"/>
	<path d="M112.9,11.3V60H100v-3.1c-2.2,2.6-5,3.9-8.6,3.9c-8,0-12-6.1-12-18.4c0-12.6,4.2-18.9,12.7-18.9c3.3,0,6,1.5,7.9,4.4V12
		C103.9,12,108.2,11.8,112.9,11.3z M96.2,28.7c-2.2,0-3.2,2-3.2,5.9l-0.2,7.5l0.1,6.9c0,4.4,1.2,6.6,3.7,6.6c2.4,0,3.6-2.2,3.6-6.5
		l0.2-8.6l-0.3-5.9C99.6,30.7,98.4,28.7,96.2,28.7z"/>
	<path d="M145.2,47l5.2,1.5c-0.5,8.2-5.4,12.3-14.5,12.3c-11.8,0-17.7-5.9-17.7-17.7c0-5.7,1.6-10.4,4.7-14.1
		c3.1-3.7,7.2-5.5,12.1-5.5c10.2,0,15.4,6.6,15.4,19.8h-18.7c0,9.3,2.4,13.9,7.1,13.9c4.4,0,6.6-2.6,6.6-7.9
		C145.3,48.8,145.3,47.9,145.2,47z M131.6,39.4h7.7c0-8.2-1.2-12.4-3.7-12.4c-2.2,0-3.5,3.1-3.8,9.2L131.6,39.4z"/>
	<path d="M181.3,37.4h-8.8c0.3-1.4,0.6-2.4,0.8-3.1c0.3-1,0.5-1.8,0.5-2.6c0-1.5-0.5-2.2-1.6-2.2c-0.8,0-1.6,1-2.4,3
		c-0.8,2-1.1,4.1-1.1,6.3V60h-12.8V24.6l2.5,0c3,0,6.4-0.3,10.3-0.9v5.8c2.1-3.9,4.6-5.8,7.7-5.8c4.1,0,6.2,2.3,6.2,6.8
		c0,1.2-0.2,2.6-0.6,4.1C181.8,35.2,181.6,36.2,181.3,37.4z"/>
	<path d="M208.8,60V12h21.3c11,0,16.5,3.9,16.5,11.8c0,5.6-3.3,9.2-9.9,10.7c8,1.6,12,5.8,12,12.7c0,8.5-5.4,12.8-16.1,12.8H208.8z
		 M222.7,32.9h4.3c4,0,5.9-2.9,5.9-8.8c0-5.4-2.1-8.1-6.3-8.1h-3.9V32.9z M222.7,56h4c5.2,0,7.8-3,7.8-8.9c0-6.8-2.7-10.2-8.1-10.2
		h-3.7V56z"/>
	<path d="M283.2,24.6l-16.2,40c-2.2,5.5-5.2,8.2-9,8.2c-3.7,0-6.1-1.6-7.5-4.7l4.4-3.2c0.4,2.7,1.3,4,3,4c1.9,0,3.4-1.6,4.5-4.7
		l0.9-2.5l-14.3-37.2h14.1l7.1,20.8l8.1-20.8H283.2z"/>
	<path d="M341.6,12l-11.7,30.3V60H316V42.3L303,12h14.4l9.8,23.1l8.8-23.1H341.6z"/>
	<path d="M360.1,23.6c11.7,0,17.6,6.2,17.6,18.6s-5.9,18.6-17.6,18.6c-11.7,0-17.6-6.2-17.6-18.6S348.4,23.6,360.1,23.6z
		 M360.1,26.8c-2.8,0-4.3,5.1-4.3,15.4s1.4,15.4,4.3,15.4c2.9,0,4.3-5.1,4.3-15.4S363,26.8,360.1,26.8z"/>
	<path d="M416.8,23.6V60H404v-5.7c-3,4.2-6.8,6.3-11.4,6.3c-6.3,0-9.4-3-9.4-9.1v-27c4.3-0.2,8.6-0.5,12.8-0.9v27.6
		c0,2.4,0.7,3.6,2.2,3.6c3.8,0,5.8-4.1,5.8-12.4V24.6C408.3,24.4,412.5,24.1,416.8,23.6z"/>
	<path d="M449.5,37.4h-8.8c0.3-1.4,0.6-2.4,0.8-3.1c0.3-1,0.5-1.8,0.5-2.6c0-1.5-0.5-2.2-1.6-2.2c-0.8,0-1.6,1-2.4,3
		s-1.1,4.1-1.1,6.3V60h-12.8V24.6l2.5,0c3,0,6.4-0.3,10.3-0.9v5.8c2.1-3.9,4.6-5.8,7.7-5.8c4.1,0,6.2,2.3,6.2,6.8
		c0,1.2-0.2,2.6-0.6,4.1C450,35.2,449.8,36.2,449.5,37.4z"/>
	<path d="M482.5,33.7l-6.2,1.1c0-5.3-2.5-7.9-7.4-7.9c-3,0-4.5,1.2-4.5,3.7c0,1.8,2.6,3.8,7.8,5.9c8,3.3,12,7.4,12,12.4
		c0,8-5.1,12-15.2,12c-10.7,0-16.1-4-16.1-12l6.6-1.3c-0.1,0.8-0.1,1.5-0.1,2.2c0,2.1,0.9,3.9,2.6,5.4s3.8,2.3,6.1,2.3
		c3.1,0,4.6-1.3,4.6-3.9c0-1.8-2.5-3.7-7.5-5.8c-7.5-3.2-11.3-7.4-11.3-12.4c0-3.4,1.4-6.1,4.3-8.2s6.6-3.2,11.1-3.2
		C477.3,23.7,481.7,27,482.5,33.7z"/>
	<path d="M514.5,47l5.2,1.5c-0.5,8.2-5.4,12.3-14.5,12.3c-11.8,0-17.7-5.9-17.7-17.7c0-5.7,1.6-10.4,4.7-14.1s7.2-5.5,12.1-5.5
		c10.2,0,15.4,6.6,15.4,19.8h-18.7c0,9.3,2.4,13.9,7.1,13.9c4.4,0,6.6-2.6,6.6-7.9C514.6,48.8,514.6,47.9,514.5,47z M500.9,39.4h7.7
		c0-8.2-1.2-12.4-3.7-12.4c-2.2,0-3.5,3.1-3.8,9.2L500.9,39.4z"/>
	<path d="M537.9,11.3V60H525V12C528.6,12,532.8,11.8,537.9,11.3z"/>
	<path d="M563.4,24.6v4h-5.1V60h-12.8V28.5H541v-4h4.5v-3.2c0-2.9,1-5.3,3.1-7.2s4.6-2.9,7.7-2.9c6.2,0,9.3,2.3,9.3,7
		c0,0.4,0,0.8,0,1.3l-6.1,2.1c0.3-1.2,0.5-2.2,0.5-2.9c0-2.5-0.9-3.7-2.6-3.7c-1.5,0-2.2,1.1-2.2,3.3c0,1.3,1.1,3.4,3.2,6.2H563.4z"
		/>
</g>
<g class="st0">
	<g class="st1">
		<defs>
			
				<rect id="SVGID_1_" x="586.4" y="-55.1" transform="matrix(0.9018 -0.4321 0.4321 0.9018 69.4343 266.9025)" width="71.5" height="71.5"/>
		</defs>
		<clipPath id="SVGID_00000176015164031900213760000011807762653456854154_">
			<use xlink:href="#SVGID_1_"  style="overflow:visible;"/>
		</clipPath>
		<g style="clip-path:url(#SVGID_00000176015164031900213760000011807762653456854154_);">
			<g>
				<defs>
					
						<rect id="SVGID_00000151531346751844226360000005396524614602264978_" x="586.4" y="-55.1" transform="matrix(0.9018 -0.4321 0.4321 0.9018 69.4343 266.9025)" width="71.5" height="71.5"/>
				</defs>
				<clipPath id="SVGID_00000032646651620996013680000007460106467645511299_">
					<use xlink:href="#SVGID_00000151531346751844226360000005396524614602264978_"  style="overflow:visible;"/>
				</clipPath>
				<g style="clip-path:url(#SVGID_00000032646651620996013680000007460106467645511299_);">
					<g>
						<defs>
							
								<rect id="SVGID_00000052790005151062430580000011367153165445316262_" x="586.4" y="-55.1" transform="matrix(0.9018 -0.4321 0.4321 0.9018 69.4343 266.9025)" width="71.5" height="71.5"/>
						</defs>
						<clipPath id="SVGID_00000157308462455402180460000001372214921547109548_">
							<use xlink:href="#SVGID_00000052790005151062430580000011367153165445316262_"  style="overflow:visible;"/>
						</clipPath>
						<g style="clip-path:url(#SVGID_00000157308462455402180460000001372214921547109548_);">
							<g>
								<path d="M605.2,5.6c3.7,6.5,10.9,9.3,16.1,6.3c5.1-3,6.3-10.6,2.5-17.1c-3.7-6.5-10.9-9.3-16.1-6.3
									C602.6-8.5,601.4-0.9,605.2,5.6z M607.1-6.7c0.5-0.9,1.3-1.6,2.2-2.2c0,0,0.2,0,0.3-0.1c0.8,3.6,3.5,5.9,6.4,8.4
									c2.5,2.2,5.1,4.4,6.3,7.5C621.8,8,621,8.8,620,9.4l0,0c-0.5-3.2-3-5.3-5.8-7.8c-2.6-2.3-5.5-4.7-6.8-8.3L607.1-6.7z"/>
								<path d="M602.9-20.6c7,2.6,14.3,0.2,16.4-5.4c2.1-5.6-1.9-12.2-8.9-14.8S596.1-41,594-35.4S595.9-23.2,602.9-20.6z
									 M596.7-34.3c0,0,0-0.2,0.1-0.3c2.9,2.2,6.5,2.3,10.2,2.4c3.3,0,6.7,0.2,9.6,1.8c0.3,1.1,0.2,2.3-0.2,3.5l0,0
									c-2.4-2.1-5.7-2.2-9.5-2.3c-3.4,0-7.2-0.2-10.6-2.1c-0.2-1,0-2.1,0.3-3L596.7-34.3z"/>
								<path d="M635.8-9c5.9,0.7,11.4-4.7,12.3-12.1c0.9-7.4-3.1-14-9-14.7s-11.4,4.7-12.3,12.1C625.9-16.3,629.9-9.7,635.8-9z
									 M636.1-21.7c-0.7-3.4-1.5-7.1-0.4-10.7c0.9-0.4,2-0.6,3-0.4c0,0,0.2,0,0.3,0c-1.5,3.3-0.7,6.8,0,10.5
									c0.7,3.2,1.4,6.6,0.5,9.8l0,0c-1,0.5-2.2,0.7-3.4,0.6l0,0C637.6-14.8,636.9-18,636.1-21.7L636.1-21.7z"/>
							</g>
						</g>
					</g>
				</g>
			</g>
		</g>
	</g>
	<g class="st1">
		<defs>
			
				<rect id="SVGID_00000128464429580562652680000014822335639195356092_" x="537.7" y="-55" transform="matrix(0.7157 -0.6984 0.6984 0.7157 178.4446 390.4813)" width="62.2" height="62.2"/>
		</defs>
		<clipPath id="SVGID_00000066482091097375212300000009942507535016212633_">
			<use xlink:href="#SVGID_00000128464429580562652680000014822335639195356092_"  style="overflow:visible;"/>
		</clipPath>
		<g style="clip-path:url(#SVGID_00000066482091097375212300000009942507535016212633_);">
			<g>
				<defs>
					
						<rect id="SVGID_00000060744104190527909240000009194619740546161847_" x="537.7" y="-55" transform="matrix(0.7157 -0.6984 0.6984 0.7157 178.4446 390.4813)" width="62.2" height="62.2"/>
				</defs>
				<clipPath id="SVGID_00000139977350170133449610000010101047950047913881_">
					<use xlink:href="#SVGID_00000060744104190527909240000009194619740546161847_"  style="overflow:visible;"/>
				</clipPath>
				<g style="clip-path:url(#SVGID_00000139977350170133449610000010101047950047913881_);">
					<g>
						<defs>
							
								<rect id="SVGID_00000008843740500245415890000016263911552194680464_" x="537.7" y="-55" transform="matrix(0.7157 -0.6984 0.6984 0.7157 178.4446 390.4813)" width="62.2" height="62.2"/>
						</defs>
						<clipPath id="SVGID_00000111188066614842882430000010849564272375435674_">
							<use xlink:href="#SVGID_00000008843740500245415890000016263911552194680464_"  style="overflow:visible;"/>
						</clipPath>
						<g style="clip-path:url(#SVGID_00000111188066614842882430000010849564272375435674_);">
							<g>
								<path d="M543.1-30.9c-4.3,4.9-4.6,11.6-0.7,15c3.9,3.4,10.5,2.2,14.8-2.7s4.6-11.6,0.7-15C554-37,547.4-35.8,543.1-30.9z
									 M553.8-32.8c0.9,0.2,1.7,0.6,2.4,1.2c0,0,0.1,0.1,0.2,0.2c-2.7,1.7-3.9,4.6-5.1,7.6c-1.1,2.7-2.2,5.4-4.4,7.2
									c-1-0.1-2-0.6-2.7-1.2l0,0c2.5-1.4,3.6-4,4.8-7c1.1-2.8,2.4-5.8,5-7.9L553.8-32.8z"/>
								<path d="M564-40.1c-0.2,6.5,3.9,11.9,9,12c5.2,0.1,9.5-5,9.7-11.5s-3.9-11.9-9-12C568.5-51.7,564.2-46.6,564-40.1z
									 M573.6-49c0,0,0.2,0,0.3,0c-1,3,0,6,0.9,9.1c0.9,2.8,1.7,5.6,1.2,8.4c-0.9,0.5-1.9,0.8-2.9,0.8l0,0
									c1.1-2.6,0.2-5.3-0.8-8.4c-0.9-2.9-1.9-6-1.3-9.3C571.8-48.8,572.7-49,573.6-49z"/>
								<path d="M563.7-9.8c1,5.1,7,8.1,13.4,6.8s10.7-6.5,9.6-11.5c-1-5.1-7-8.1-13.4-6.8C566.9-20,562.6-14.8,563.7-9.8z
									 M574.2-13c2.6-1.5,5.4-3.2,8.7-3.3c0.6,0.7,1,1.5,1.2,2.4v0.2c-3.2-0.3-5.8,1.3-8.7,3c-2.5,1.5-5,3-7.9,3.1l0,0
									c-0.7-0.7-1.2-1.6-1.4-2.6l0,0c2.8,0.4,5.2-1,8-2.7L574.2-13z"/>
							</g>
						</g>
					</g>
				</g>
			</g>
		</g>
	</g>
	<g class="st1">
		<defs>
			
				<rect id="SVGID_00000138572945899209453210000012087488588986606995_" x="489.1" y="-49.1" transform="matrix(0.3762 -0.9265 0.9265 0.3762 343.9577 456.456)" width="43.7" height="43.7"/>
		</defs>
		<clipPath id="SVGID_00000007419487562783158460000014926123550690805904_">
			<use xlink:href="#SVGID_00000138572945899209453210000012087488588986606995_"  style="overflow:visible;"/>
		</clipPath>
		<g style="clip-path:url(#SVGID_00000007419487562783158460000014926123550690805904_);">
			<g>
				<defs>
					
						<rect id="SVGID_00000181080085559290614960000004245497436521400221_" x="489.1" y="-49.1" transform="matrix(0.3762 -0.9265 0.9265 0.3762 343.9577 456.456)" width="43.7" height="43.7"/>
				</defs>
				<clipPath id="SVGID_00000149371181170033398540000006370455935058967683_">
					<use xlink:href="#SVGID_00000181080085559290614960000004245497436521400221_"  style="overflow:visible;"/>
				</clipPath>
				<g style="clip-path:url(#SVGID_00000149371181170033398540000006370455935058967683_);">
					<g>
						<defs>
							
								<rect id="SVGID_00000157274307003549184060000013233296241279576731_" x="489.1" y="-49.1" transform="matrix(0.3762 -0.9265 0.9265 0.3762 343.9577 456.456)" width="43.7" height="43.7"/>
						</defs>
						<clipPath id="SVGID_00000090289835523862788920000015591605183726302096_">
							<use xlink:href="#SVGID_00000157274307003549184060000013233296241279576731_"  style="overflow:visible;"/>
						</clipPath>
						<g style="clip-path:url(#SVGID_00000090289835523862788920000015591605183726302096_);">
							<g>
								<path d="M513.5-8.9c4.4,1.4,8.8-0.3,9.9-3.8c1.1-3.5-1.5-7.4-5.9-8.8s-8.8,0.3-9.9,3.8S509.1-10.3,513.5-8.9z M509.3-15.3
									c-0.1-0.6-0.1-1.3,0-1.9c0,0,0-0.1,0-0.2c1.8,1.3,4,1.2,6.3,1.2c2,0,4.1,0,5.9,0.8c0.2,0.7,0.2,1.4,0,2.1l0,0
									c-1.6-1.2-3.6-1.1-5.9-1.1c-2.1,0-4.4,0.1-6.5-1L509.3-15.3z"/>
								<path d="M501.7-19.9c4.2-1.7,6.6-5.8,5.2-9.2c-1.4-3.4-5.9-4.7-10.1-3s-6.6,5.8-5.2,9.2S497.5-18.2,501.7-19.9z M493.2-23.6
									c0,0,0-0.1,0-0.2c2.2-0.2,3.9-1.6,5.6-3.1c1.5-1.3,3.1-2.7,5.1-3.2c0.6,0.4,1.1,1,1.3,1.6l0,0c-2,0-3.5,1.4-5.2,2.9
									c-1.6,1.4-3.3,2.9-5.6,3.4c-0.5-0.4-0.9-0.9-1.1-1.5L493.2-23.6z"/>
								<path d="M521.3-28.2c3-2.1,3.2-6.8,0.6-10.6c-2.6-3.7-7.2-5.1-10.2-3s-3.2,6.8-0.6,10.6C513.7-27.5,518.3-26.1,521.3-28.2
									L521.3-28.2z M516.3-34.1c-1.7-1.2-3.6-2.6-4.6-4.7c0.3-0.6,0.7-1.1,1.2-1.4c0,0,0.1,0,0.2,0c0.7,2.1,2.5,3.4,4.3,4.7
									c1.7,1.2,3.3,2.4,4.2,4.2l0,0c-0.3,0.7-0.7,1.3-1.3,1.7l0,0C519.8-31.5,518.1-32.7,516.3-34.1L516.3-34.1z"/>
							</g>
						</g>
					</g>
				</g>
			</g>
		</g>
	</g>
</g>
<g class="st0">
	<g class="st1">
		<defs>
			
				<rect id="SVGID_00000112623371471208234670000018267588871983790232_" x="-241.9" y="52.9" transform="matrix(0.9018 -0.4321 0.4321 0.9018 -58.5316 -80.3779)" width="71.5" height="71.5"/>
		</defs>
		<clipPath id="SVGID_00000107565891795814456480000006133538833755874984_">
			<use xlink:href="#SVGID_00000112623371471208234670000018267588871983790232_"  style="overflow:visible;"/>
		</clipPath>
		<g style="clip-path:url(#SVGID_00000107565891795814456480000006133538833755874984_);">
			<g>
				<defs>
					
						<rect id="SVGID_00000143592070394255006160000014980748555269490838_" x="-241.9" y="52.9" transform="matrix(0.9018 -0.4321 0.4321 0.9018 -58.5316 -80.3779)" width="71.5" height="71.5"/>
				</defs>
				<clipPath id="SVGID_00000037675713258556152810000000217551932552389252_">
					<use xlink:href="#SVGID_00000143592070394255006160000014980748555269490838_"  style="overflow:visible;"/>
				</clipPath>
				<g style="clip-path:url(#SVGID_00000037675713258556152810000000217551932552389252_);">
					<g>
						<defs>
							
								<rect id="SVGID_00000155125310499038666140000000481474676190816956_" x="-241.9" y="52.9" transform="matrix(0.9018 -0.4321 0.4321 0.9018 -58.5316 -80.3779)" width="71.5" height="71.5"/>
						</defs>
						<clipPath id="SVGID_00000123424657249156507210000007154820408201712265_">
							<use xlink:href="#SVGID_00000155125310499038666140000000481474676190816956_"  style="overflow:visible;"/>
						</clipPath>
						<g style="clip-path:url(#SVGID_00000123424657249156507210000007154820408201712265_);">
							<g>
								<path d="M-189.5,63.2c-3.7-6.5-10.9-9.3-16.1-6.3c-5.1,3-6.3,10.6-2.5,17.1c3.7,6.5,10.9,9.3,16.1,6.3
									C-186.9,77.3-185.7,69.7-189.5,63.2z M-191.4,75.6c-0.5,0.9-1.3,1.6-2.2,2.2c0,0-0.2,0-0.3,0.1c-0.8-3.6-3.5-5.9-6.4-8.4
									c-2.5-2.2-5.1-4.4-6.3-7.5c0.5-1.1,1.3-1.9,2.3-2.5l0,0c0.5,3.2,3,5.3,5.8,7.8c2.6,2.3,5.5,4.7,6.8,8.3H-191.4z"/>
								<path d="M-187.2,89.4c-7-2.6-14.3-0.2-16.4,5.4c-2.1,5.6,1.9,12.2,8.9,14.8c7,2.6,14.3,0.2,16.4-5.4S-180.2,92-187.2,89.4z
									 M-181.1,103.2c0,0,0,0.2-0.1,0.3c-2.9-2.2-6.5-2.3-10.2-2.4c-3.3,0-6.7-0.2-9.6-1.8c-0.3-1.1-0.2-2.3,0.2-3.5l0,0
									c2.4,2.1,5.7,2.2,9.5,2.3c3.4,0,7.2,0.2,10.6,2.1C-180.5,101.2-180.7,102.3-181.1,103.2L-181.1,103.2z"/>
								<path d="M-220.1,77.8c-5.9-0.7-11.4,4.7-12.3,12.1c-0.9,7.4,3.1,14,9,14.7s11.4-4.7,12.3-12.1
									C-210.2,85.1-214.2,78.5-220.1,77.8z M-220.5,90.5c0.7,3.4,1.5,7.1,0.4,10.7c-0.9,0.4-2,0.6-3,0.4c0,0-0.2,0-0.3,0
									c1.5-3.3,0.7-6.8,0-10.5c-0.7-3.2-1.4-6.6-0.5-9.8l0,0c1-0.5,2.2-0.7,3.4-0.6l0,0c-1.5,2.9-0.8,6.1,0,9.7L-220.5,90.5z"/>
							</g>
						</g>
					</g>
				</g>
			</g>
		</g>
	</g>
	<g class="st1">
		<defs>
			
				<rect id="SVGID_00000017500784557188676250000017935825079174973057_" x="-183.9" y="62" transform="matrix(0.7157 -0.6984 0.6984 0.7157 -108.4383 -80.2785)" width="62.2" height="62.2"/>
		</defs>
		<clipPath id="SVGID_00000173131204963029217760000001176481097097557899_">
			<use xlink:href="#SVGID_00000017500784557188676250000017935825079174973057_"  style="overflow:visible;"/>
		</clipPath>
		<g style="clip-path:url(#SVGID_00000173131204963029217760000001176481097097557899_);">
			<g>
				<defs>
					
						<rect id="SVGID_00000146491521313363193370000013965939750674886333_" x="-183.9" y="62" transform="matrix(0.7157 -0.6984 0.6984 0.7157 -108.4382 -80.2784)" width="62.2" height="62.2"/>
				</defs>
				<clipPath id="SVGID_00000011024511871580586080000007735828610376363172_">
					<use xlink:href="#SVGID_00000146491521313363193370000013965939750674886333_"  style="overflow:visible;"/>
				</clipPath>
				<g style="clip-path:url(#SVGID_00000011024511871580586080000007735828610376363172_);">
					<g>
						<defs>
							
								<rect id="SVGID_00000145036934458696287680000008313130334835030712_" x="-183.9" y="62" transform="matrix(0.7157 -0.6984 0.6984 0.7157 -108.4383 -80.2784)" width="62.2" height="62.2"/>
						</defs>
						<clipPath id="SVGID_00000145749361757981423380000013198779549624535475_">
							<use xlink:href="#SVGID_00000145036934458696287680000008313130334835030712_"  style="overflow:visible;"/>
						</clipPath>
						<g style="clip-path:url(#SVGID_00000145749361757981423380000013198779549624535475_);">
							<g>
								<path d="M-127.4,99.7c4.3-4.9,4.6-11.6,0.7-15c-3.9-3.4-10.5-2.2-14.8,2.7c-4.3,4.9-4.6,11.6-0.7,15
									C-138.3,105.8-131.7,104.6-127.4,99.7z M-138.1,101.6c-0.9-0.2-1.7-0.6-2.4-1.2c0,0-0.1-0.1-0.2-0.2
									c2.7-1.7,3.9-4.6,5.1-7.6c1.1-2.7,2.2-5.4,4.4-7.2c1,0.1,2,0.6,2.7,1.2l0,0c-2.5,1.4-3.6,4-4.8,7c-1.1,2.8-2.4,5.8-5,7.9
									L-138.1,101.6z"/>
								<path d="M-148.4,108.9c0.2-6.5-3.9-11.9-9-12c-5.2-0.1-9.5,5-9.7,11.5s3.9,11.9,9,12C-152.9,120.5-148.6,115.4-148.4,108.9z
									 M-158,117.8c0,0-0.2,0-0.3,0c1-3,0-6-0.9-9.1c-0.9-2.8-1.7-5.6-1.2-8.4c0.9-0.5,1.9-0.8,2.9-0.8l0,0
									c-1.1,2.6-0.2,5.3,0.8,8.4c0.9,2.9,1.9,6,1.3,9.3C-156.2,117.6-157.1,117.8-158,117.8z"/>
								<path d="M-148,78.6c-1-5.1-7-8.1-13.4-6.8c-6.4,1.3-10.7,6.5-9.6,11.5c1,5.1,7,8.1,13.4,6.8
									C-151.2,88.8-146.9,83.6-148,78.6z M-158.5,81.8c-2.6,1.5-5.4,3.2-8.7,3.3c-0.6-0.7-1-1.5-1.2-2.4v-0.2
									c3.2,0.3,5.8-1.3,8.7-3c2.5-1.5,5-3,7.9-3.1l0,0c0.7,0.7,1.2,1.6,1.4,2.6l0,0C-153.2,78.6-155.6,80-158.5,81.8L-158.5,81.8z
									"/>
							</g>
						</g>
					</g>
				</g>
			</g>
		</g>
	</g>
	<g class="st1">
		<defs>
			
				<rect id="SVGID_00000160185135507191308970000001478989648488590239_" x="-116.7" y="74.3" transform="matrix(0.3762 -0.9265 0.9265 0.3762 -148.2611 -27.9161)" width="43.7" height="43.7"/>
		</defs>
		<clipPath id="SVGID_00000160154981842413635780000002395853766750433708_">
			<use xlink:href="#SVGID_00000160185135507191308970000001478989648488590239_"  style="overflow:visible;"/>
		</clipPath>
		<g style="clip-path:url(#SVGID_00000160154981842413635780000002395853766750433708_);">
			<g>
				<defs>
					
						<rect id="SVGID_00000128466265805035697350000017908741779201620920_" x="-116.7" y="74.3" transform="matrix(0.3762 -0.9265 0.9265 0.3762 -148.2611 -27.9161)" width="43.7" height="43.7"/>
				</defs>
				<clipPath id="SVGID_00000093896549140282412600000002080169964981934763_">
					<use xlink:href="#SVGID_00000128466265805035697350000017908741779201620920_"  style="overflow:visible;"/>
				</clipPath>
				<g style="clip-path:url(#SVGID_00000093896549140282412600000002080169964981934763_);">
					<g>
						<defs>
							
								<rect id="SVGID_00000092452779668374262070000002268173579309115022_" x="-116.7" y="74.3" transform="matrix(0.3762 -0.9265 0.9265 0.3762 -148.2611 -27.9161)" width="43.7" height="43.7"/>
						</defs>
						<clipPath id="SVGID_00000093169627783567477020000013399139177655601287_">
							<use xlink:href="#SVGID_00000092452779668374262070000002268173579309115022_"  style="overflow:visible;"/>
						</clipPath>
						<g style="clip-path:url(#SVGID_00000093169627783567477020000013399139177655601287_);">
							<g>
								<path d="M-97.8,77.8c-4.4-1.4-8.8,0.3-9.9,3.8s1.5,7.4,5.9,8.8s8.8-0.3,9.9-3.8S-93.4,79.2-97.8,77.8z M-93.6,84.2
									c0.1,0.6,0.1,1.3,0,1.9c0,0,0,0.1,0,0.2c-1.8-1.3-4-1.2-6.3-1.2c-2,0-4.1,0-5.9-0.8c-0.2-0.7-0.2-1.4,0-2.1l0,0
									c1.6,1.2,3.6,1.1,5.9,1.1c2.1,0,4.4-0.1,6.5,1L-93.6,84.2z"/>
								<path d="M-86,88.7c-4.2,1.7-6.6,5.8-5.2,9.2c1.4,3.4,5.9,4.7,10.1,3s6.6-5.8,5.2-9.2C-77.3,88.3-81.8,87-86,88.7z
									 M-77.5,92.4c0,0,0,0.1,0,0.2c-2.2,0.2-3.9,1.6-5.6,3.1c-1.5,1.3-3.1,2.7-5.1,3.2c-0.6-0.4-1.1-1-1.3-1.6l0,0
									c2,0,3.5-1.4,5.2-2.9c1.6-1.4,3.3-2.9,5.6-3.4c0.5,0.4,0.9,0.9,1.1,1.5L-77.5,92.4z"/>
								<path d="M-105.7,97c-3,2.1-3.2,6.8-0.6,10.6c2.6,3.7,7.2,5.1,10.2,3s3.2-6.8,0.6-10.6C-98.1,96.3-102.7,94.9-105.7,97z
									 M-100.6,102.9c1.7,1.2,3.6,2.6,4.6,4.7c-0.3,0.6-0.7,1.1-1.2,1.4c0,0-0.1,0-0.2,0c-0.7-2.1-2.5-3.4-4.3-4.7
									c-1.7-1.2-3.3-2.4-4.2-4.2l0,0c0.3-0.7,0.7-1.3,1.3-1.7l0,0C-104.1,100.3-102.4,101.5-100.6,102.9L-100.6,102.9z"/>
							</g>
						</g>
					</g>
				</g>
			</g>
		</g>
	</g>
</g>
</svg>
