<?xml version="1.0" encoding="UTF-8"?>
<svg id="Layer_1" data-name="Layer 1" xmlns="http://www.w3.org/2000/svg" version="1.1" xmlns:xlink="http://www.w3.org/1999/xlink" viewBox="0 0 141.7 141.7">
  <defs>
    <style>
      .cls-1 {
        clip-path: url(#clippath-11);
      }

      .cls-2 {
        clip-path: url(#clippath-16);
      }

      .cls-3, .cls-4 {
        stroke-width: 0px;
      }

      .cls-3, .cls-5 {
        fill: #000;
      }

      .cls-6 {
        clip-path: url(#clippath-2);
      }

      .cls-7 {
        clip-path: url(#clippath-13);
      }

      .cls-8 {
        clip-path: url(#clippath-15);
      }

      .cls-9 {
        clip-path: url(#clippath-6);
      }

      .cls-4 {
        fill: none;
      }

      .cls-10 {
        clip-path: url(#clippath-7);
      }

      .cls-11 {
        clip-path: url(#clippath-1);
      }

      .cls-12 {
        clip-path: url(#clippath-4);
      }

      .cls-13 {
        clip-path: url(#clippath-12);
      }

      .cls-14 {
        clip-path: url(#clippath-9);
      }

      .cls-15 {
        clip-path: url(#clippath);
      }

      .cls-16 {
        clip-path: url(#clippath-3);
      }

      .cls-5 {
        font-family: BritannicBold, 'Britannic Bold';
        font-size: 72px;
      }

      .cls-5, .cls-17 {
        display: none;
      }

      .cls-18 {
        clip-path: url(#clippath-8);
      }

      .cls-19 {
        clip-path: url(#clippath-14);
      }

      .cls-20 {
        clip-path: url(#clippath-17);
      }

      .cls-21 {
        clip-path: url(#clippath-5);
      }

      .cls-22 {
        clip-path: url(#clippath-10);
      }
    </style>
    <clipPath id="clippath">
      <rect class="cls-4" x="743.2" y="-2.9" width="71.5" height="71.5" transform="translate(62.5 340.2) rotate(-25.6)"/>
    </clipPath>
    <clipPath id="clippath-1">
      <rect class="cls-4" x="743.2" y="-2.9" width="71.5" height="71.5" transform="translate(62.5 340.2) rotate(-25.6)"/>
    </clipPath>
    <clipPath id="clippath-2">
      <rect class="cls-4" x="743.2" y="-2.9" width="71.5" height="71.5" transform="translate(62.5 340.2) rotate(-25.6)"/>
    </clipPath>
    <clipPath id="clippath-3">
      <rect class="cls-4" x="694.6" y="-2.8" width="62.2" height="62.2" transform="translate(186.8 515.2) rotate(-44.3)"/>
    </clipPath>
    <clipPath id="clippath-4">
      <rect class="cls-4" x="694.6" y="-2.8" width="62.2" height="62.2" transform="translate(186.8 515.2) rotate(-44.3)"/>
    </clipPath>
    <clipPath id="clippath-5">
      <rect class="cls-4" x="694.6" y="-2.8" width="62.2" height="62.2" transform="translate(186.8 515.2) rotate(-44.3)"/>
    </clipPath>
    <clipPath id="clippath-6">
      <rect class="cls-4" x="645.8" y="3.3" width="43.7" height="43.7" transform="translate(393.6 634.6) rotate(-67.9)"/>
    </clipPath>
    <clipPath id="clippath-7">
      <rect class="cls-4" x="645.8" y="3.3" width="43.7" height="43.7" transform="translate(393.6 634.6) rotate(-67.9)"/>
    </clipPath>
    <clipPath id="clippath-8">
      <rect class="cls-4" x="645.8" y="3.3" width="43.7" height="43.7" transform="translate(393.6 634.6) rotate(-67.9)"/>
    </clipPath>
    <clipPath id="clippath-9">
      <rect class="cls-4" x="-84.9" y="105.3" width="71.5" height="71.5" transform="translate(-32.5 289.5) rotate(154.4)"/>
    </clipPath>
    <clipPath id="clippath-10">
      <rect class="cls-4" x="-84.9" y="105.3" width="71.5" height="71.5" transform="translate(-32.5 289.5) rotate(154.4)"/>
    </clipPath>
    <clipPath id="clippath-11">
      <rect class="cls-4" x="-84.9" y="105.3" width="71.5" height="71.5" transform="translate(-32.5 289.5) rotate(154.4)"/>
    </clipPath>
    <clipPath id="clippath-12">
      <rect class="cls-4" x="-27" y="114.4" width="62.2" height="62.2" transform="translate(108.8 246.8) rotate(135.7)"/>
    </clipPath>
    <clipPath id="clippath-13">
      <rect class="cls-4" x="-27" y="114.4" width="62.2" height="62.2" transform="translate(108.8 246.8) rotate(135.7)"/>
    </clipPath>
    <clipPath id="clippath-14">
      <rect class="cls-4" x="-27" y="114.4" width="62.2" height="62.2" transform="translate(108.8 246.8) rotate(135.7)"/>
    </clipPath>
    <clipPath id="clippath-15">
      <rect class="cls-4" x="40.2" y="126.8" width="43.7" height="43.7" transform="translate(223.2 146.9) rotate(112.1)"/>
    </clipPath>
    <clipPath id="clippath-16">
      <rect class="cls-4" x="40.2" y="126.8" width="43.7" height="43.7" transform="translate(223.2 146.9) rotate(112.1)"/>
    </clipPath>
    <clipPath id="clippath-17">
      <rect class="cls-4" x="40.2" y="126.8" width="43.7" height="43.7" transform="translate(223.2 146.9) rotate(112.1)"/>
    </clipPath>
  </defs>
  <g>
    <path class="cls-3" d="M73,88.8c0-2.4-.9-3.6-2.8-3.6h-1.7v7.5h1.9c1.8,0,2.6-1.3,2.6-3.9Z"/>
    <path class="cls-3" d="M70.1,94.5h-1.7v8.5h1.8c2.3,0,3.5-1.3,3.5-4s-1.2-4.5-3.6-4.5Z"/>
    <path class="cls-3" d="M50.1,84.8c-1.2,0-2,.6-2.4,1.9-.4,1.3-.6,3.7-.6,7.4s.2,6.1.6,7.4c.4,1.3,1.2,1.9,2.4,1.9s2-.6,2.4-1.9c.4-1.3.6-3.8.6-7.4s-.2-6.1-.6-7.4c-.4-1.3-1.2-1.9-2.4-1.9Z"/>
    <path class="cls-3" d="M102.3,65.1v-8.6H33.3v66.1c0,3.2,2.6,5.8,5.8,5.8h57.5c3.2,0,5.8-2.6,5.8-5.8v-13.7c11.6-.6,20.8-10.2,20.8-22s-9.2-21.3-20.8-21.8ZM50.1,105.1c-6.3,0-9.5-3.8-9.5-11.3s3.2-10.8,9.6-10.8,9.3,3.7,9.3,11-3.2,11-9.5,11ZM72.8,104.8h-10.5v-21.3h9.5c4.9,0,7.3,1.7,7.3,5.2s-1.5,4.1-4.4,4.8c3.5.7,5.3,2.6,5.3,5.7s-2.4,5.7-7.2,5.7ZM92.1,96.9v7.9h-6.2v-7.9l-5.7-13.4h6.4l4.3,10.3,3.9-10.3h2.5l-5.2,13.4ZM102.4,100.3v-26.6c6.9.6,12.2,6.3,12.2,13.2s-5.5,12.8-12.2,13.4Z"/>
    <path class="cls-3" d="M66.5,31.5c0,1.2-.4,2.3-1.3,3-1.2,1.2-1.2,2.9,0,4,.6.6,1.3.9,2,.9s1.4-.3,2-.9c1.9-1.9,3-4.5,3-7.2s-1-5.2-3-7c-1.7-1.7-1.7-4.5,0-6,1.2-1.1,1.2-2.9,0-4-1.1-1.2-2.9-1.2-4,0-4,3.9-4,10.3,0,14.2.9.9,1.3,1.9,1.3,3Z"/>
    <path class="cls-3" d="M80.9,42.8c-1.2,1.1-1.2,2.9,0,4,.6.6,1.3.9,2,.9s1.4-.3,2-.9c3.9-3.9,3.9-10.3,0-14.2-.9-.9-1.3-1.9-1.3-3s.4-2.3,1.3-3c1.2-1.2,1.2-2.9,0-4-1.1-1.1-2.9-1.1-4,0-1.9,1.9-3,4.5-3,7.2.1,2.7,1.2,5.2,3,7,1.7,1.7,1.7,4.5,0,6Z"/>
    <path class="cls-3" d="M52.1,39.8c0,1.1-.4,2.3-1.3,3-1.2,1.1-1.2,2.9,0,4,.6.6,1.3.9,2,.9s1.4-.3,2-.9c1.9-1.9,3-4.5,3-7.2s-1-5.2-3-7.2-1.7-4.5,0-6c1.2-1.2,1.2-2.9,0-4s-2.9-1.1-4,0c-4,4.2-4,10.5,0,14.4.9.9,1.3,1.9,1.3,3Z"/>
  </g>
  <text class="cls-5" transform="translate(157.1 112.5)"><tspan x="0" y="0">Order By Yourself</tspan></text>
  <g class="cls-17">
    <g class="cls-15">
      <g class="cls-11">
        <g class="cls-6">
          <g>
            <path class="cls-3" d="M762.2,58.2c3.7,6.5,10.9,9.3,16.1,6.3,5.1-3,6.3-10.6,2.5-17.1-3.7-6.5-10.9-9.3-16.1-6.3-5.1,3-6.3,10.6-2.5,17.1ZM764.1,45.8c.5-.9,1.3-1.6,2.2-2.2,0,0,.2,0,.3-.1.8,3.6,3.5,5.9,6.4,8.4,2.5,2.2,5.1,4.4,6.3,7.5-.5,1.1-1.3,1.9-2.3,2.5h0c-.5-3.2-3-5.3-5.8-7.8-2.6-2.3-5.5-4.7-6.8-8.3Z"/>
            <path class="cls-3" d="M759.9,31.9c7,2.6,14.3.2,16.4-5.4,2.1-5.6-1.9-12.2-8.9-14.8-7-2.6-14.3-.2-16.4,5.4s1.9,12.2,8.9,14.8ZM753.8,18.2c0,0,0-.2.1-.3,2.9,2.2,6.5,2.3,10.2,2.4,3.3,0,6.7.2,9.6,1.8.3,1.1.2,2.3-.2,3.5,0,0,0,0,0,0-2.4-2.1-5.7-2.2-9.5-2.3-3.4,0-7.2-.2-10.6-2.1-.2-1,0-2.1.3-3Z"/>
            <path class="cls-3" d="M792.8,43.5c5.9.7,11.4-4.7,12.3-12.1.9-7.4-3.1-14-9-14.7-5.9-.7-11.4,4.7-12.3,12.1-.9,7.4,3.1,14,9,14.7ZM793.2,30.8c-.7-3.4-1.5-7.1-.4-10.7.9-.4,2-.6,3-.4,0,0,.2,0,.3,0-1.5,3.3-.7,6.8,0,10.5.7,3.2,1.4,6.6.5,9.8h0c-1,.5-2.2.7-3.4.6,0,0,0,0,0,0,1.5-2.9.8-6.1,0-9.7Z"/>
          </g>
        </g>
      </g>
    </g>
    <g class="cls-16">
      <g class="cls-12">
        <g class="cls-21">
          <g>
            <path class="cls-3" d="M700.1,21.6c-4.3,4.9-4.6,11.6-.7,15,3.9,3.4,10.5,2.2,14.8-2.7,4.3-4.9,4.6-11.6.7-15-3.9-3.4-10.5-2.2-14.8,2.7ZM710.8,19.7c.9.2,1.7.6,2.4,1.2,0,0,.1.1.2.2-2.7,1.7-3.9,4.6-5.1,7.6-1.1,2.7-2.2,5.4-4.4,7.2-1-.1-2-.6-2.7-1.2h0c2.5-1.4,3.6-4,4.8-7,1.1-2.8,2.4-5.8,5-7.9Z"/>
            <path class="cls-3" d="M721.1,12.4c-.2,6.5,3.9,11.9,9,12,5.2.1,9.5-5,9.7-11.5.2-6.5-3.9-11.9-9-12-5.2-.1-9.5,5-9.7,11.5ZM730.7,3.5c0,0,.2,0,.3,0-1,3,0,6,.9,9.1.9,2.8,1.7,5.6,1.2,8.4-.9.5-1.9.8-2.9.8,0,0,0,0,0,0,1.1-2.6.2-5.3-.8-8.4-.9-2.9-1.9-6-1.3-9.3.8-.4,1.7-.6,2.6-.6Z"/>
            <path class="cls-3" d="M720.7,42.7c1,5.1,7,8.1,13.4,6.8,6.4-1.3,10.7-6.5,9.6-11.5-1-5.1-7-8.1-13.4-6.8-6.4,1.3-10.7,6.5-9.6,11.5ZM731.3,39.5c2.6-1.5,5.4-3.2,8.7-3.3.6.7,1,1.5,1.2,2.4,0,0,0,.2,0,.2-3.2-.3-5.8,1.3-8.7,3-2.5,1.5-5,3-7.9,3.1h0c-.7-.7-1.2-1.6-1.4-2.6,0,0,0,0,0,0,2.8.4,5.2-1,8-2.7Z"/>
          </g>
        </g>
      </g>
    </g>
    <g class="cls-9">
      <g class="cls-10">
        <g class="cls-18">
          <g>
            <path class="cls-3" d="M670.6,43.6c4.4,1.4,8.8-.3,9.9-3.8,1.1-3.5-1.5-7.4-5.9-8.8-4.4-1.4-8.8.3-9.9,3.8-1.1,3.5,1.5,7.4,5.9,8.8ZM666.3,37.2c-.1-.6-.1-1.3,0-1.9,0,0,0-.1,0-.2,1.8,1.3,4,1.2,6.3,1.2,2,0,4.1,0,5.9.8.2.7.2,1.4,0,2.1h0c-1.6-1.2-3.6-1.1-5.9-1.1-2.1,0-4.4.1-6.5-1Z"/>
            <path class="cls-3" d="M658.7,32.6c4.2-1.7,6.6-5.8,5.2-9.2-1.4-3.4-5.9-4.7-10.1-3-4.2,1.7-6.6,5.8-5.2,9.2,1.4,3.4,5.9,4.7,10.1,3ZM650.3,29c0,0,0-.1,0-.2,2.2-.2,3.9-1.6,5.6-3.1,1.5-1.3,3.1-2.7,5.1-3.2.6.4,1.1,1,1.3,1.6,0,0,0,0,0,0-2,0-3.5,1.4-5.2,2.9-1.6,1.4-3.3,2.9-5.6,3.4-.5-.4-.9-.9-1.1-1.5Z"/>
            <path class="cls-3" d="M678.4,24.3c3-2.1,3.2-6.8.6-10.6-2.6-3.7-7.2-5.1-10.2-3-3,2.1-3.2,6.8-.6,10.6,2.6,3.7,7.2,5.1,10.2,3ZM673.3,18.4c-1.7-1.2-3.6-2.6-4.6-4.7.3-.6.7-1.1,1.2-1.4,0,0,.1,0,.2,0,.7,2.1,2.5,3.4,4.3,4.7,1.7,1.2,3.3,2.4,4.2,4.2h0c-.3.7-.7,1.3-1.3,1.7,0,0,0,0,0,0-.5-1.9-2.2-3.1-4-4.4Z"/>
          </g>
        </g>
      </g>
    </g>
  </g>
  <g class="cls-17">
    <g class="cls-14">
      <g class="cls-22">
        <g class="cls-1">
          <g>
            <path class="cls-3" d="M-32.4,115.7c-3.7-6.5-10.9-9.3-16.1-6.3-5.1,3-6.3,10.6-2.5,17.1,3.7,6.5,10.9,9.3,16.1,6.3,5.1-3,6.3-10.6,2.5-17.1ZM-34.3,128.1c-.5.9-1.3,1.6-2.2,2.2,0,0-.2,0-.3.1-.8-3.6-3.5-5.9-6.4-8.4-2.5-2.2-5.1-4.4-6.3-7.5.5-1.1,1.3-1.9,2.3-2.5h0c.5,3.2,3,5.3,5.8,7.8,2.6,2.3,5.5,4.7,6.8,8.3Z"/>
            <path class="cls-3" d="M-30.1,141.9c-7-2.6-14.3-.2-16.4,5.4-2.1,5.6,1.9,12.2,8.9,14.8,7,2.6,14.3.2,16.4-5.4s-1.9-12.2-8.9-14.8ZM-24,155.7c0,0,0,.2-.1.3-2.9-2.2-6.5-2.3-10.2-2.4-3.3,0-6.7-.2-9.6-1.8-.3-1.1-.2-2.3.2-3.5,0,0,0,0,0,0,2.4,2.1,5.7,2.2,9.5,2.3,3.4,0,7.2.2,10.6,2.1.2,1,0,2.1-.3,3Z"/>
            <path class="cls-3" d="M-63,130.3c-5.9-.7-11.4,4.7-12.3,12.1-.9,7.4,3.1,14,9,14.7,5.9.7,11.4-4.7,12.3-12.1.9-7.4-3.1-14-9-14.7ZM-63.4,143c.7,3.4,1.5,7.1.4,10.7-.9.4-2,.6-3,.4,0,0-.2,0-.3,0,1.5-3.3.7-6.8,0-10.5-.7-3.2-1.4-6.6-.5-9.8h0c1-.5,2.2-.7,3.4-.6,0,0,0,0,0,0-1.5,2.9-.8,6.1,0,9.7Z"/>
          </g>
        </g>
      </g>
    </g>
    <g class="cls-13">
      <g class="cls-7">
        <g class="cls-19">
          <g>
            <path class="cls-3" d="M29.7,152.3c4.3-4.9,4.6-11.6.7-15-3.9-3.4-10.5-2.2-14.8,2.7-4.3,4.9-4.6,11.6-.7,15,3.9,3.4,10.5,2.2,14.8-2.7ZM19,154.1c-.9-.2-1.7-.6-2.4-1.2,0,0-.1-.1-.2-.2,2.7-1.7,3.9-4.6,5.1-7.6,1.1-2.7,2.2-5.4,4.4-7.2,1,.1,2,.6,2.7,1.2h0c-2.5,1.4-3.6,4-4.8,7-1.1,2.8-2.4,5.8-5,7.9Z"/>
            <path class="cls-3" d="M8.7,161.4c.2-6.5-3.9-11.9-9-12-5.2-.1-9.5,5-9.7,11.5-.2,6.5,3.9,11.9,9,12,5.2.1,9.5-5,9.7-11.5ZM-.9,170.3c0,0-.2,0-.3,0,1-3,0-6-.9-9.1-.9-2.8-1.7-5.6-1.2-8.4.9-.5,1.9-.8,2.9-.8,0,0,0,0,0,0-1.1,2.6-.2,5.3.8,8.4.9,2.9,1.9,6,1.3,9.3-.8.4-1.7.6-2.6.6Z"/>
            <path class="cls-3" d="M9.1,131.1c-1-5.1-7-8.1-13.4-6.8-6.4,1.3-10.7,6.5-9.6,11.5,1,5.1,7,8.1,13.4,6.8,6.4-1.3,10.7-6.5,9.6-11.5ZM-1.5,134.4c-2.6,1.5-5.4,3.2-8.7,3.3-.6-.7-1-1.5-1.2-2.4,0,0,0-.2,0-.2,3.2.3,5.8-1.3,8.7-3,2.5-1.5,5-3,7.9-3.1h0c.7.7,1.2,1.6,1.4,2.6,0,0,0,0,0,0-2.8-.4-5.2,1-8,2.7Z"/>
          </g>
        </g>
      </g>
    </g>
    <g class="cls-8">
      <g class="cls-2">
        <g class="cls-20">
          <g>
            <path class="cls-3" d="M59.2,130.3c-4.4-1.4-8.8.3-9.9,3.8-1.1,3.5,1.5,7.4,5.9,8.8,4.4,1.4,8.8-.3,9.9-3.8,1.1-3.5-1.5-7.4-5.9-8.8ZM63.5,136.7c.1.6.1,1.3,0,1.9,0,0,0,.1,0,.2-1.8-1.3-4-1.2-6.3-1.2-2,0-4.1,0-5.9-.8-.2-.7-.2-1.4,0-2.1h0c1.6,1.2,3.6,1.1,5.9,1.1,2.1,0,4.4-.1,6.5,1Z"/>
            <path class="cls-3" d="M71.1,141.2c-4.2,1.7-6.6,5.8-5.2,9.2,1.4,3.4,5.9,4.7,10.1,3,4.2-1.7,6.6-5.8,5.2-9.2-1.4-3.4-5.9-4.7-10.1-3ZM79.5,144.9c0,0,0,.1,0,.2-2.2.2-3.9,1.6-5.6,3.1-1.5,1.3-3.1,2.7-5.1,3.2-.6-.4-1.1-1-1.3-1.6,0,0,0,0,0,0,2,0,3.5-1.4,5.2-2.9,1.6-1.4,3.3-2.9,5.6-3.4.5.4.9.9,1.1,1.5Z"/>
            <path class="cls-3" d="M51.4,149.5c-3,2.1-3.2,6.8-.6,10.6,2.6,3.7,7.2,5.1,10.2,3,3-2.1,3.2-6.8.6-10.6-2.6-3.7-7.2-5.1-10.2-3ZM56.5,155.4c1.7,1.2,3.6,2.6,4.6,4.7-.3.6-.7,1.1-1.2,1.4,0,0-.1,0-.2,0-.7-2.1-2.5-3.4-4.3-4.7-1.7-1.2-3.3-2.4-4.2-4.2h0c.3-.7.7-1.3,1.3-1.7,0,0,0,0,0,0,.5,1.9,2.2,3.1,4,4.4Z"/>
          </g>
        </g>
      </g>
    </g>
  </g>
</svg>